<svg xmlns="http://www.w3.org/2000/svg" xmlns:xlink="http://www.w3.org/1999/xlink" version="1.1" id="Cut_x5F_Big" x="0px" y="0px" viewBox="0 0 1683.8 1190.6" style="enable-background:new 0 0 1683.8 1190.6;" xml:space="preserve"><script xmlns="" type="text/javascript" charset="utf-8" id="zm-extension"/>
<style type="text/css">
	.st0{fill:#FFFFFF;}
</style>
<g>
	<g>
		<path class="st0" d="M861.4,246.4l50.8,59.7v229.6l-50.8,59.7v2.5h186.1v-2.5l-57.1-59.7V468h59.8c46.6,0,116.1-12.2,116.1-109.7    c0-50.1-21.1-75.9-31.7-86.5c-25.4-25.3-58.7-27.8-85.6-27.8H861.4V246.4z M990.4,300.1h39.5c26.2,0,57.9,4.5,57.9,51.6    c0,51.6-39.9,54.1-54.7,54.1h-42.6V300.1z"/>
		<path class="st0" d="M195.8,621.3L139,696.7v3.2h179.2v-3.2l-50.9-67.1l16.3-53h110.1l12.9,52.4l-49.9,67.7v3.2h24.6    c5.1-16.1,10.3-32.2,15.7-48.3c0.3-0.9,0.7-1.9,1-2.8c1-0.2,2.1-0.4,3.1-0.6c37.1-7,74.5-13,112-18.2l-6.8-8.7l-70.6-290L495,256    v-3.3H227.4v3.3l57.8,74.7L195.8,621.3z M345.4,362l34.6,139.9h-77.5L345.4,362z"/>
		<path class="st0" d="M1421.5,277.7c-35.6-28.1-74.6-38.9-105.2-38.9c-28.1,0-60.8,10.2-84.9,33.2c-31.1,29.4-42.9,72.2-42.9,112.4    c0,92.6,62.2,118.8,97.7,129.1l64.2,18.5c33.6,9.6,45.9,17.9,51.9,25.6c6.4,7.6,10.8,19.1,10.8,31.3c0,14-6.4,27.4-15.8,35.8    c-3.4,3.1-14.3,11.4-39,11.4c-76,0-123.4-64.5-151-132.9h-9.4v137.5c14.3,2.4,28.5,4.8,42.6,7.5c1.1,0.2,2.1,0.4,3.1,0.6    c0.3,1,0.7,1.9,1,2.8c2,5.9,3.8,11.8,5.7,17.7c43,37.9,82.8,41.5,106.5,41.5c35.1,0,74.6-8.9,101.2-37.1    c18.3-19.2,38.5-56.2,38.5-112.4c0-106.1-66.6-136-115-146.9l-37-8.3c-33.1-7-74.1-10.2-74.1-57.5c0-10.2,0-42.2,51.8-42.2    c70.6,0,111.6,62.6,131.3,110.5h8.4v-175h-11.8L1421.5,277.7z"/>
		<path class="st0" d="M739.3,243.9H551.6v2.5l50.8,59.7v229.6l-50.8,59.7v2.5h186.2v-2.5l-57.1-59.7V468h59.8    c46.6,0,116.1-12.2,116.1-109.7c0-50.1-21.1-75.9-31.6-86.5C799.6,246.4,766.3,243.9,739.3,243.9z M723.3,405.8h-42.6V300.1h39.5    c26.2,0,57.9,4.5,57.9,51.6C778,403.2,738.2,405.8,723.3,405.8z"/>
		<path class="st0" d="M806.7,644.2c0,1.7,0,3.5,0,5.3c0,0,0,0,0,0c3.1,0,6.2,0,9.3,0c0,8.3,0,16.6,0,24.9c0,0,0,0,0,0    c2,0,4.1,0,6.1,0c0,0,0.1,0,0.1,0c0-8.3,0-16.6,0-24.9c3,0,6.1,0,9.2,0c0,0,0,0,0,0c0-1.7,0-3.5,0.1-5.2c-0.1,0-0.1,0-0.1,0    C823.2,644.1,815,644.1,806.7,644.2z"/>
		<path class="st0" d="M1253.9,702c-5-15.8-10.1-31.7-15.5-47.5c-136.8-25.8-277.3-38.9-417.6-38.9c-140.2,0-280.7,13.1-417.6,38.9    c-5.3,15.8-10.5,31.6-15.4,47.5c10.9,12.7,21.7,25.4,32.3,38.3c131.3-24.8,266.1-37.4,400.7-37.4c134.6,0,269.3,12.6,400.7,37.4    C1232.1,727.4,1242.9,714.7,1253.9,702z M820.9,689.1c-132.4,0-265.3,12.1-394.9,36c-7.3-8.8-14.6-17.5-22-26.2    c3.5-10.8,7-21.5,10.7-32.3c133.5-24.6,270.2-37.1,406.3-37.1c136.1,0,272.8,12.5,406.2,37.1c3.7,10.8,7.2,21.5,10.7,32.3    c-7.5,8.7-14.8,17.5-22,26.2C1086.1,701.2,953.2,689.1,820.9,689.1z"/>
		<path class="st0" d="M485.6,669.5L485.6,669.5c-1.8,0.3-3.7,0.6-5.6,0.9c-1.9,4.9-3.8,9.9-5.7,14.8c-0.2,1.2-0.5,2.5-0.7,3.7    c-0.1,0-0.1,0-0.2,0c-0.6-1.1-1.3-2.1-2-3.2c-3.6-4.1-7.1-8.2-10.6-12.2c0,0,0,0,0,0h0c-1.9,0.3-3.7,0.6-5.6,0.9    c1.7,9.9,3.4,19.9,5.2,29.8c0,0,0,0,0,0l0,0c1.9-0.3,3.8-0.7,5.8-0.9c-0.9-5.2-1.7-10.3-2.6-15.5c-0.6-1.9-1.3-3.8-1.9-5.7    c0,0,0.1,0,0.1,0c0.9,1.5,1.8,2.9,2.8,4.4c2.9,3.3,5.9,6.7,8.8,10.1c0,0,0,0,0,0l0,0c0.7-0.1,1.3-0.3,2-0.3    c1.6-4.1,3.2-8.1,4.8-12.2c0.4-1.7,0.8-3.4,1.1-5.1c0.1,0,0.2,0,0.2-0.1c0.1,2.1,0.2,4,0.3,6.1c0.9,5.1,1.7,10.3,2.5,15.5    c0,0,0,0,0,0v0c2.1-0.3,4.1-0.6,6.1-0.9C488.8,689.4,487.2,679.5,485.6,669.5C485.6,669.5,485.6,669.5,485.6,669.5z"/>
		<path class="st0" d="M522.3,689.4L522.3,689.4c-4.2,0.6-8.4,1.2-12.5,1.7c-0.3-2.4-0.7-4.9-1.1-7.3c3.8-0.6,7.5-1.1,11.3-1.6    c-0.2-1.8-0.5-3.5-0.7-5.2c0,0-0.1,0-0.1,0l0,0c-3.8,0.6-7.5,1.1-11.2,1.6c-0.4-2.3-0.7-4.6-1.1-6.9c4.1-0.6,8.3-1.2,12.5-1.7    c-0.3-1.7-0.5-3.5-0.8-5.2c0,0,0,0,0,0v0c-6.2,0.8-12.4,1.7-18.6,2.6c1.5,9.9,3,19.9,4.5,29.9c0,0,0,0,0,0l0,0    c6.2-0.9,12.4-1.8,18.6-2.6C522.8,692.9,522.6,691.2,522.3,689.4C522.3,689.4,522.3,689.4,522.3,689.4z"/>
		<path class="st0" d="M554.4,685.2L554.4,685.2c-4.2,0.5-8.4,1-12.6,1.6c-0.3-2.4-0.6-4.9-1-7.3c3.8-0.5,7.5-0.9,11.3-1.4    c-0.2-1.7-0.5-3.5-0.7-5.3c0,0,0,0,0,0l0,0c-3.8,0.5-7.5,0.9-11.3,1.4c-0.3-2.3-0.6-4.7-0.9-6.9c4.2-0.6,8.3-1,12.5-1.6    c-0.2-1.7-0.4-3.5-0.7-5.2c0,0,0,0,0,0c0,0,0,0,0,0c-6.2,0.8-12.4,1.5-18.7,2.3c1.3,10,2.7,20,4.1,30c0,0,0,0,0,0l0,0    c6.2-0.8,12.4-1.6,18.6-2.3C554.9,688.7,554.7,687,554.4,685.2C554.4,685.2,554.4,685.2,554.4,685.2z"/>
		<path class="st0" d="M587.3,656.4C587.3,656.4,587.3,656.4,587.3,656.4L587.3,656.4c-8.2,0.9-16.4,1.8-24.7,2.7    c0.2,1.7,0.4,3.5,0.7,5.2c0,0,0,0,0,0l0,0c3.1-0.4,6.1-0.7,9.1-1.1c1,8.2,1.9,16.5,2.9,24.8c0,0,0,0,0.1,0c0,0,0,0,0,0    c2-0.2,4-0.5,6.1-0.7c-0.9-8.3-1.9-16.5-2.8-24.8c3-0.3,6.1-0.7,9.2-1C587.7,659.9,587.5,658.1,587.3,656.4z"/>
		<path class="st0" d="M639,651.6C639,651.6,639,651.6,639,651.6c-8.3,0.7-16.5,1.4-24.7,2.2c0.2,1.7,0.3,3.5,0.5,5.2c0,0,0,0,0,0    c3.1-0.3,6.1-0.6,9.2-0.8c0.8,8.3,1.6,16.5,2.3,24.8c0,0,0,0,0,0c2.1-0.2,4.1-0.4,6.1-0.5c-0.7-8.3-1.5-16.6-2.2-24.9    c3.1-0.3,6.1-0.5,9.2-0.8C639.3,655.1,639.2,653.3,639,651.6z"/>
		<path class="st0" d="M675.2,648.9c-2,0.1-4.1,0.3-6.2,0.4c0.3,4.1,0.6,8.2,0.9,12.3c-3.8,0.3-7.6,0.5-11.5,0.8    c-0.3-4.1-0.6-8.2-0.9-12.3c0,0,0,0,0,0c-2,0.1-4.1,0.3-6.2,0.4c0.8,10.1,1.6,20.1,2.4,30.1h0c2-0.1,4.1-0.3,6.1-0.4    c-0.3-4.2-0.6-8.4-0.9-12.6c3.8-0.3,7.6-0.6,11.4-0.8c0.3,4.2,0.6,8.4,0.9,12.6c0.1,0,0.1,0,0.1,0c2-0.2,4.1-0.3,6.1-0.5    C676.6,669,675.9,659,675.2,648.9C675.2,648.9,675.2,648.9,675.2,648.9z"/>
		<path class="st0" d="M710.1,671.9c-4.2,0.2-8.4,0.5-12.6,0.7c-0.1-2.5-0.3-4.9-0.4-7.3c3.8-0.3,7.6-0.4,11.4-0.6    c-0.1-1.8-0.2-3.5-0.3-5.3c0,0,0,0-0.1,0c-3.8,0.2-7.6,0.4-11.4,0.6c-0.1-2.3-0.3-4.7-0.4-7c4.2-0.2,8.4-0.5,12.6-0.7    c-0.1-1.7-0.2-3.5-0.3-5.3h0c-6.3,0.3-12.6,0.7-18.8,1c0.6,10,1.2,20.1,1.8,30.1c0,0,0,0,0,0c6.3-0.4,12.5-0.7,18.8-1    C710.3,675.4,710.2,673.6,710.1,671.9L710.1,671.9z"/>
		<path class="st0" d="M763.8,669.8c-4.6,0.1-9.2,0.2-13.7,0.4c-0.3-8.3-0.5-16.6-0.8-24.9c0,0,0,0-0.1,0c-2.1,0-4.1,0.1-6.2,0.2    c0.4,10,0.8,20.1,1.1,30.2c0,0,0,0,0.1,0c6.6-0.2,13.2-0.4,19.8-0.6C763.9,673.3,763.9,671.6,763.8,669.8    C763.8,669.8,763.8,669.8,763.8,669.8z"/>
		<path class="st0" d="M789.2,644.2c-1.5,0-3.1,0-4.6,0.1c-3.6,10.2-7.2,20.4-10.7,30.6c0,0,0,0,0,0c2,0,4.1-0.1,6.1-0.1    c0.8-2.3,1.5-4.5,2.3-6.7c3.2-0.1,6.4-0.1,9.6-0.1c0.9,2.2,1.7,4.4,2.6,6.7c0,0,0,0,0.1,0c2.2,0,4.3,0,6.4-0.1    C797.1,664.3,793.2,654.2,789.2,644.2C789.3,644.2,789.2,644.2,789.2,644.2z M783.8,663.2c0.7-2.2,1.4-4.5,2.2-6.7    c0.3-1.6,0.6-3.2,0.9-4.8c0.1,0,0.1,0,0.2,0c0.3,1.6,0.7,3.1,1,4.7c0.8,2.3,1.6,4.5,2.4,6.7C788.3,663.2,786,663.2,783.8,663.2z"/>
		<path class="st0" d="M843.7,644.2c-0.1,10.1-0.2,20.2-0.3,30.2c6.3,0.1,12.6,0.1,18.8,0.3c0,0,0,0,0,0c0-1.8,0.1-3.5,0.1-5.3    c-4.2-0.1-8.5-0.1-12.7-0.2c0-2.4,0-4.9,0.1-7.3c3.7,0,7.5,0.1,11.3,0.2c0,0,0,0,0,0c0.1-1.7,0.1-3.5,0.1-5.3    c-3.8-0.1-7.6-0.1-11.4-0.2c0-2.3,0.1-4.7,0.1-7c4.2,0.1,8.4,0.1,12.6,0.2h0c0-1.8,0.1-3.5,0.1-5.3    C856.4,644.4,850.1,644.4,843.7,644.2C843.8,644.2,843.8,644.2,843.7,644.2z"/>
		<path class="st0" d="M892.2,660c-1-0.8-2.2-1.4-3.4-2c-1.2-0.6-2.4-1.1-3.4-1.6c-1.1-0.5-1.9-1.1-2.6-1.7c-0.7-0.6-1.1-1.3-1-2.2    c0-0.9,0.4-1.6,1.2-2.2c0.7-0.5,1.9-0.8,3.3-0.7c1.5,0,3,0.2,4.3,0.6c1.3,0.4,2.3,0.8,2.9,1.2l0,0c0,0,0,0,0,0    c0.7-1.6,1.4-3.3,2.1-4.9c-1-0.6-2.4-1.1-4-1.4c-1.6-0.3-3.3-0.6-5.2-0.6c0,0,0,0,0,0l0,0c-1.6,0-3.1,0.1-4.4,0.4    c-1.3,0.3-2.4,0.8-3.4,1.5c-1,0.7-1.7,1.6-2.2,2.6c-0.5,1.1-0.8,2.3-0.9,3.9c-0.1,1.6,0.3,3.1,1,4.2c0.7,1.1,1.5,2.1,2.6,2.8    c1,0.8,2.2,1.4,3.4,1.9c1.2,0.5,2.3,1,3.5,1.5c1,0.5,1.9,1,2.5,1.7c0.7,0.6,1,1.3,1,2.3c0,1.2-0.6,2.1-1.5,2.6    c-1,0.6-2.4,0.8-4.2,0.8c-0.7-0.1-1.5-0.1-2.2-0.2c-0.7-0.2-1.4-0.3-2.1-0.5c-0.6-0.2-1.2-0.4-1.7-0.6c-0.5-0.2-0.9-0.4-1.3-0.6v0    c0,0-0.1,0-0.1,0c-0.6,1.6-1.4,3.4-2.1,5c0.8,0.4,2,0.8,3.7,1.3c1.7,0.4,3.6,0.7,5.8,0.8c0,0,0,0,0,0h0c1.7,0.1,3.3-0.1,4.7-0.4    c1.4-0.3,2.6-0.8,3.7-1.6c1.1-0.8,1.8-1.7,2.4-2.9c0.6-1.1,0.9-2.5,1-4.1c0.1-1.6-0.2-2.9-0.9-4.1    C894.1,661.7,893.3,660.8,892.2,660z"/>
		<path class="st0" d="M907.4,645.8c-0.1,1.7-0.2,3.5-0.2,5.2c3.1,0.1,6.2,0.3,9.3,0.4c-0.4,8.3-0.8,16.6-1.2,25    c2.1,0.1,4.1,0.2,6.1,0.3h0c0.4-8.3,0.8-16.6,1.2-24.9c3.1,0.1,6.1,0.3,9.2,0.4c0,0,0,0,0,0c0.1-1.7,0.2-3.5,0.2-5.3    C924,646.5,915.7,646.2,907.4,645.8L907.4,645.8z"/>
		<path class="st0" d="M980.9,649.9c-0.3,4.1-0.6,8.2-0.9,12.2c-3.8-0.3-7.6-0.5-11.5-0.8c0.3-4.1,0.5-8.2,0.8-12.3    c-2-0.1-4.1-0.3-6.2-0.4c0,0,0,0-0.1,0c-0.6,10.1-1.3,20.1-2,30.2c2.1,0.1,4.1,0.3,6.1,0.4c0,0,0.1,0,0.1,0    c0.3-4.2,0.6-8.4,0.8-12.6c3.8,0.3,7.6,0.5,11.5,0.8c-0.3,4.2-0.6,8.4-1,12.6c2,0.1,4,0.3,6.1,0.5h0c0.8-10,1.5-20.1,2.3-30.1    C985.1,650.2,983,650.1,980.9,649.9L980.9,649.9z"/>
		<path class="st0" d="M1010.4,652C1010.4,652,1010.4,652,1010.4,652S1010.4,652,1010.4,652c-4.8,9.8-9.4,19.6-14,29.4    c2,0.2,4.1,0.3,6.1,0.5l0,0c0,0,0,0,0,0c1-2.2,2-4.3,3-6.5c3.2,0.3,6.4,0.6,9.6,0.8c0.6,2.3,1.2,4.6,1.9,6.9    c2.1,0.2,4.3,0.4,6.4,0.6c0,0,0,0,0,0c0,0,0,0,0,0c-2.7-10.4-5.6-20.9-8.5-31.3C1013.4,652.3,1011.9,652.1,1010.4,652z     M1007.5,670.8c1-2.1,1.9-4.3,2.9-6.4c0.4-1.6,0.9-3.2,1.4-4.7c0.1,0,0.1,0,0.2,0c0.2,1.6,0.3,3.2,0.5,4.8    c0.6,2.3,1.1,4.6,1.7,6.9C1011.9,671.2,1009.7,671,1007.5,670.8z"/>
		<path class="st0" d="M1050.5,673.4c2-0.4,3.8-1.3,5.1-2.7c1.4-1.4,2.2-3.4,2.5-5.8c0.2-1.7,0-3.1-0.6-4.3    c-0.5-1.2-1.4-2.1-2.4-2.9c-1-0.7-2.3-1.3-3.7-1.7c-1.4-0.4-2.8-0.7-4.3-0.8c-0.6-0.1-1.3-0.1-2.1-0.2c-0.8,0-1.5-0.1-2.3-0.1    c0,0,0,0,0,0c-0.8,0-1.6,0-2.4,0c0,0,0,0,0,0c-0.8,0-1.6,0-2.3,0.1c-1,9.9-2,19.8-3,29.8c2,0.2,4.1,0.4,6.1,0.6l0,0c0,0,0,0,0,0    c0.4-4.1,0.8-8.2,1.3-12.3c1,0.2,2,0.6,3.1,0.9c2,4.2,3.9,8.3,5.8,12.5c2.4,0.2,4.7,0.5,7,0.7l0,0h0.1c-1.9-4.1-3.9-8.1-5.8-12.2    C1051.8,674.5,1051.2,674,1050.5,673.4z M1045.4,669.4c-0.9-0.1-1.7-0.2-2.6-0.3c0.3-2.9,0.6-5.8,0.9-8.7c0.3,0,0.8-0.1,1.3,0    c0.7,0,1.3,0.1,1.9,0.1c1.6,0.2,2.8,0.6,3.5,1.5c0.8,0.8,1.1,1.8,1,3.1c-0.2,1.7-0.8,2.9-1.9,3.5    C1048.4,669.3,1047.1,669.5,1045.4,669.4z"/>
		<path class="st0" d="M1090.4,660.5C1090.4,660.5,1090.4,660.5,1090.4,660.5c-2.8,5.6-5.5,11.2-8.3,16.9c-0.5,1.7-1,3.3-1.6,5    c0,0-0.1,0-0.2,0c-0.1-1.7-0.1-3.4-0.2-5.2c-1.4-6.1-2.7-12.2-4.1-18.3c-2.4-0.3-4.8-0.6-7.1-0.8l0,0h0c2.8,10.5,5.4,21,8.1,31.6    c1.5,0.2,2.9,0.3,4.4,0.5l0,0c0,0,0,0,0,0c5.1-9.6,10.2-19.2,15.4-28.8C1094.7,661,1092.5,660.8,1090.4,660.5L1090.4,660.5z"/>
		<path class="st0" d="M1108.2,662.8L1108.2,662.8c-1.4,10-2.7,20-4.1,29.9c6.2,0.8,12.4,1.6,18.6,2.5l0,0c0,0,0,0,0,0    c0.3-1.8,0.5-3.5,0.7-5.3c-4.1-0.6-8.3-1.1-12.5-1.7c0.3-2.5,0.7-4.9,0.9-7.3c3.8,0.5,7.6,1,11.3,1.5l0,0h0    c0.3-1.7,0.5-3.5,0.7-5.2c-3.7-0.6-7.5-1.1-11.3-1.6c0.3-2.3,0.7-4.6,1-7c4.2,0.5,8.3,1.1,12.4,1.7l0,0c0,0,0,0,0.1,0    c0.3-1.7,0.5-3.5,0.7-5.2C1120.5,664.4,1114.4,663.5,1108.2,662.8L1108.2,662.8z"/>
		<path class="st0" d="M1149.7,673.1c1.5,0.2,2.9,0.6,4.1,1.1c1.3,0.6,2.2,1.1,2.8,1.6c0,0,0,0,0,0l0,0c0.9-1.6,1.8-3.1,2.8-4.6    c-1-0.8-2.2-1.4-3.8-1.9c-1.6-0.6-3.3-0.9-5.1-1.2c-1.6-0.2-3-0.3-4.4-0.1c0,0,0,0-0.1,0c-1.3,0.2-2.5,0.5-3.6,1.1    c-1,0.6-1.9,1.4-2.6,2.3c-0.7,1-1.1,2.2-1.3,3.7c-0.3,1.7-0.1,3.1,0.4,4.2c0.6,1.2,1.3,2.3,2.2,3.1c0.9,0.9,2,1.7,3.1,2.4    c1.2,0.7,2.2,1.3,3.2,1.9c1,0.6,1.8,1.3,2.4,1.9c0.6,0.7,0.8,1.5,0.7,2.4c-0.2,1.2-0.8,2-1.8,2.5c-1.1,0.4-2.5,0.5-4.3,0.2    c-0.8-0.1-1.5-0.3-2.2-0.5c-0.7-0.2-1.4-0.4-2-0.7c-0.7-0.3-1.2-0.5-1.7-0.8c-0.5-0.3-0.9-0.5-1.2-0.8c0,0,0,0,0,0c0,0,0,0,0,0    c-0.9,1.6-1.8,3.1-2.7,4.7c0.7,0.5,1.9,1.1,3.5,1.7c1.6,0.6,3.5,1.1,5.8,1.4c1.7,0.3,3.2,0.3,4.7,0.2c0,0,0,0,0.1,0    c1.5-0.2,2.7-0.6,3.8-1.2c1.1-0.6,2-1.5,2.8-2.5c0.7-1.1,1.2-2.4,1.5-4c0.3-1.6,0.1-3-0.4-4.1c-0.5-1.2-1.2-2.2-2.2-3.1    c-0.9-0.9-2-1.7-3.2-2.3c-1.1-0.7-2.2-1.4-3.2-2c-1-0.7-1.8-1.3-2.4-2c-0.6-0.7-0.9-1.4-0.8-2.3c0.1-0.9,0.7-1.6,1.5-2    C1147.2,673,1148.3,672.9,1149.7,673.1z"/>
		<path class="st0" d="M1171.1,671.9C1171.1,671.9,1171.1,671.9,1171.1,671.9c-0.3,1.7-0.6,3.4-0.9,5.2c3,0.5,6.1,1,9.2,1.5    c-1.4,8.2-2.8,16.4-4.2,24.6c2,0.4,4,0.7,6,1v0c0,0,0,0,0.1,0c1.4-8.2,2.8-16.4,4.3-24.6c3,0.5,6,1,9,1.6v0c0,0,0,0,0,0    c0.3-1.8,0.6-3.4,0.9-5.2C1187.4,674.5,1179.2,673.1,1171.1,671.9L1171.1,671.9z"/>
		<path class="st0" d="M549.8,610.7c-1.9,0-3.5,1.6-3.5,3.5c0,1.9,1.5,3.4,3.5,3.4H561c1.9,0,3.4-1.5,3.4-3.4c0-1.9-1.5-3.5-3.4-3.5    H549.8z"/>
		<path class="st0" d="M899.2,497.4c0-1.9-1.5-3.5-3.5-3.5c-1.9,0-3.4,1.6-3.4,3.5v11.1c0,1.9,1.5,3.5,3.4,3.5    c1.9,0,3.5-1.6,3.5-3.5V497.4z"/>
		<path class="st0" d="M899.2,475.3c0-1.9-1.5-3.5-3.5-3.5c-1.9,0-3.4,1.6-3.4,3.5v11.1c0,1.9,1.5,3.5,3.4,3.5    c1.9,0,3.5-1.6,3.5-3.5V475.3z"/>
		<path class="st0" d="M895.7,516.1c-1.9,0-3.4,1.6-3.4,3.5v9c-0.9,1.4-0.4,3.1,1,4.2c0.5,0.5,1.3,0.7,2,0.7c1.1,0,2.3-0.5,3.1-1.4    c0.6-0.6,0.8-1.4,0.8-2.2v-10.3C899.2,517.7,897.6,516.1,895.7,516.1z"/>
		<path class="st0" d="M582.6,522.1c0,1.9,1.5,3.4,3.4,3.4c1.9,0,3.4-1.5,3.4-3.4v-11.1c0-1.9-1.5-3.5-3.4-3.5    c-1.9,0-3.4,1.5-3.4,3.5V522.1z"/>
		<path class="st0" d="M564.4,290c0.8,0,1.6-0.3,2.2-0.8c1.5-1.2,1.6-3.4,0.4-4.9l-7.2-8.4c-1.2-1.5-3.5-1.6-4.9-0.4    c-1.5,1.2-1.7,3.4-0.4,4.9l7.2,8.5C562.4,289.5,563.4,290,564.4,290z"/>
		<path class="st0" d="M574.1,538.6c-1.2,1.5-1.1,3.7,0.4,4.9c0.6,0.6,1.5,0.8,2.3,0.8c1,0,1.9-0.4,2.6-1.2l7.2-8.4    c1.2-1.5,1.1-3.7-0.4-4.9c-1.5-1.2-3.7-1.1-4.9,0.4L574.1,538.6z"/>
		<path class="st0" d="M562.4,561.2c1,0,1.9-0.4,2.6-1.2l7.2-8.5c1.2-1.4,1-3.6-0.4-4.9c-1.4-1.2-3.7-1.1-4.9,0.4l-7.2,8.4    c-1.2,1.5-1.1,3.6,0.4,4.9C560.8,560.9,561.6,561.2,562.4,561.2z"/>
		<path class="st0" d="M574.2,292.7c-1.2-1.5-3.4-1.7-4.9-0.4c-1.5,1.2-1.6,3.4-0.4,4.9l7.2,8.5c0.6,0.8,1.6,1.2,2.6,1.2    c0.8,0,1.6-0.3,2.2-0.8c1.4-1.2,1.6-3.4,0.4-4.9L574.2,292.7z"/>
		<path class="st0" d="M899.2,408.9c0-1.9-1.5-3.5-3.5-3.5c-1.9,0-3.4,1.6-3.4,3.5v11c0,1.9,1.5,3.5,3.4,3.5c1.9,0,3.5-1.6,3.5-3.5    V408.9z"/>
		<path class="st0" d="M878.6,550c0.7,0.5,1.5,0.8,2.3,0.8c1,0,2-0.4,2.6-1.2l7.2-8.5c1.2-1.5,1-3.6-0.4-4.9    c-1.5-1.3-3.7-1.1-4.9,0.4l-7.2,8.5C877,546.6,877.2,548.7,878.6,550z"/>
		<path class="st0" d="M889.4,299.2c-1.2-1.4-3.4-1.6-4.9-0.4c-1.5,1.2-1.6,3.4-0.4,4.9l7.2,8.4c0.7,0.8,1.7,1.2,2.6,1.2    c0.8,0,1.6-0.3,2.3-0.8c1.4-1.2,1.6-3.4,0.4-4.9L889.4,299.2z"/>
		<path class="st0" d="M871.4,333.5c-1.9,0.2-3.3,1.9-3,3.8c0.4,3.5,0.7,7.1,0.9,10.8c0.1,1.8,1.6,3.3,3.5,3.3c0,0,0.1,0,0.2,0    c1.9-0.1,3.4-1.7,3.2-3.7c-0.2-3.8-0.5-7.6-1-11.2C875,334.6,873.4,333.2,871.4,333.5z"/>
		<path class="st0" d="M899.2,320.3c0-1.9-1.5-3.5-3.5-3.5c-1.9,0-3.4,1.6-3.4,3.5v11.1c0,1.9,1.5,3.5,3.4,3.5    c1.9,0,3.5-1.5,3.5-3.5V320.3z"/>
		<path class="st0" d="M875,282.3c-1.2-1.5-3.4-1.6-4.9-0.4c-1.5,1.2-1.6,3.4-0.4,4.9l7.2,8.4c0.7,0.8,1.7,1.2,2.6,1.2    c0.8,0,1.6-0.3,2.2-0.9c1.5-1.2,1.6-3.4,0.4-4.9L875,282.3z"/>
		<path class="st0" d="M899.2,342.4c0-1.9-1.5-3.4-3.5-3.4c-1.9,0-3.4,1.5-3.4,3.4v11.1c0,1.9,1.5,3.4,3.4,3.4    c1.9,0,3.5-1.5,3.5-3.4V342.4z"/>
		<path class="st0" d="M582.6,500c0,1.9,1.5,3.5,3.4,3.5c1.9,0,3.4-1.5,3.4-3.5v-11.1c0-1.9-1.5-3.4-3.4-3.4c-1.9,0-3.4,1.5-3.4,3.4    V500z"/>
		<path class="st0" d="M899.2,453.2c0-1.9-1.5-3.5-3.5-3.5c-1.9,0-3.4,1.5-3.4,3.5v11.1c0,1.9,1.5,3.5,3.4,3.5    c1.9,0,3.5-1.6,3.5-3.5V453.2z"/>
		<path class="st0" d="M899.2,431c0-1.9-1.5-3.5-3.5-3.5c-1.9,0-3.4,1.6-3.4,3.5v11c0,1.9,1.5,3.5,3.4,3.5c1.9,0,3.5-1.6,3.5-3.5    V431z"/>
		<path class="st0" d="M899.2,386.7c0-1.9-1.5-3.5-3.5-3.5c-1.9,0-3.4,1.6-3.4,3.5v11.1c0,1.9,1.5,3.4,3.4,3.4    c1.9,0,3.5-1.6,3.5-3.4V386.7z"/>
		<path class="st0" d="M899.2,364.6c0-1.9-1.5-3.4-3.5-3.4c-1.9,0-3.4,1.5-3.4,3.4v11.1c0,1.9,1.5,3.4,3.4,3.4    c1.9,0,3.5-1.5,3.5-3.4V364.6z"/>
		<path class="st0" d="M540.6,258.6c-1.5,1.2-1.6,3.4-0.4,4.9l7.2,8.4c0.7,0.8,1.7,1.2,2.7,1.2c0.8,0,1.6-0.2,2.2-0.8    c1.5-1.2,1.6-3.4,0.4-4.9l-7.2-8.4C544.2,257.5,542,257.4,540.6,258.6z"/>
		<path class="st0" d="M711.3,549.2c0.7,0.7,1.6,1.1,2.5,1.1c0.9,0,1.7-0.3,2.4-1c1.4-1.3,1.4-3.5,0.1-4.9l-7.6-8    c-1.3-1.4-3.5-1.5-4.9-0.1c-1.4,1.3-1.4,3.5-0.1,4.9L711.3,549.2z"/>
		<path class="st0" d="M708.8,484.2c0-1.9-1.5-3.5-3.5-3.5h-8.2c-1.9,0-3.4,1.5-3.4,3.5v2.8c0,1.9,1.5,3.4,3.4,3.4    c1.7,0,3.1-1.2,3.4-2.8h4.8C707.3,487.7,708.8,486.1,708.8,484.2z"/>
		<path class="st0" d="M594.2,610.7c-1.9,0-3.5,1.6-3.5,3.5c0,1.9,1.5,3.4,3.5,3.4h11.1c1.9,0,3.5-1.5,3.5-3.4    c0-1.9-1.6-3.5-3.5-3.5H594.2z"/>
		<path class="st0" d="M731,484.2c0-1.9-1.6-3.5-3.5-3.5h-11c-1.9,0-3.5,1.5-3.5,3.5c0,1.9,1.6,3.4,3.5,3.4h11    C729.4,487.7,731,486.1,731,484.2z"/>
		<path class="st0" d="M697.1,512.7c1.9,0,3.5-1.6,3.5-3.5v-11.1c0-1.9-1.6-3.5-3.5-3.5c-1.9,0-3.4,1.6-3.4,3.5v11.1    C693.6,511.1,695.2,512.7,697.1,512.7z"/>
		<path class="st0" d="M726.6,565.2c0.7,0.7,1.6,1.1,2.5,1.1c0.9,0,1.7-0.3,2.4-1c1.4-1.3,1.4-3.5,0.1-4.9l-7.6-8    c-1.3-1.4-3.5-1.5-4.9-0.1c-1.4,1.3-1.4,3.5-0.1,4.9L726.6,565.2z"/>
		<path class="st0" d="M582.6,477.9c0,1.9,1.5,3.5,3.4,3.5c1.9,0,3.4-1.6,3.4-3.5v-11.1c0-1.9-1.5-3.4-3.4-3.4    c-1.9,0-3.4,1.5-3.4,3.4V477.9z"/>
		<path class="st0" d="M757.6,589c0-0.9-0.3-1.7-0.9-2.4l-2.1-2.2c-1.4-1.4-3.6-1.5-4.9-0.1c-1.4,1.3-1.4,3.5-0.1,4.9l1.2,1.2v6.6    c0,1.9,1.5,3.5,3.5,3.5c1.9,0,3.4-1.5,3.4-3.5V589z"/>
		<path class="st0" d="M760.7,486.9c0.1,0,0.2,0,0.3,0c3.9-0.3,7.6-0.8,11.2-1.3c1.9-0.3,3.2-2,3-3.9c-0.3-1.9-2.1-3.2-3.9-2.9    c-3.5,0.5-7.1,0.9-10.8,1.2c-1.9,0.1-3.3,1.8-3.1,3.7C757.4,485.5,758.9,486.9,760.7,486.9z"/>
		<path class="st0" d="M734.4,568.3c-1.4,1.3-1.4,3.5-0.1,4.9l7.7,8c0.7,0.7,1.6,1.1,2.5,1.1c0.9,0,1.7-0.3,2.4-1    c1.4-1.3,1.4-3.5,0.1-4.9l-7.6-8C737.9,567,735.7,567,734.4,568.3z"/>
		<path class="st0" d="M693.6,529.3c0,0.9,0.3,1.8,0.9,2.4l1.4,1.4c0.7,0.7,1.6,1,2.5,1c0.9,0,1.7-0.3,2.4-0.9    c1.4-1.3,1.4-3.5,0.1-4.9l-0.4-8.1c0-1.9-1.6-3.5-3.5-3.5c-1.9,0-3.4,1.5-3.4,3.5V529.3z"/>
		<path class="st0" d="M753.1,483.9c-0.1-1.9-1.6-3.4-3.6-3.4c-2.9,0.1-5.9,0.2-9,0.2h-1.9c-1.9,0-3.5,1.5-3.5,3.5    c0,1.9,1.6,3.4,3.5,3.4h1.9c3.2,0,6.3,0,9.3-0.1C751.7,487.5,753.2,485.8,753.1,483.9z"/>
		<path class="st0" d="M582.6,411.4c0,1.9,1.5,3.4,3.4,3.4c1.9,0,3.4-1.5,3.4-3.4v-11.1c0-1.9-1.5-3.4-3.4-3.4    c-1.9,0-3.4,1.5-3.4,3.4V411.4z"/>
		<path class="st0" d="M582.6,389.3c0,1.9,1.5,3.5,3.4,3.5c1.9,0,3.4-1.6,3.4-3.5v-11.1c0-1.9-1.5-3.4-3.4-3.4    c-1.9,0-3.4,1.5-3.4,3.4V389.3z"/>
		<path class="st0" d="M582.6,367.1c0,1.9,1.5,3.4,3.4,3.4c1.9,0,3.4-1.5,3.4-3.4V356c0-1.9-1.5-3.5-3.4-3.5c-1.9,0-3.4,1.5-3.4,3.5    V367.1z"/>
		<path class="st0" d="M582.6,433.6c0,1.9,1.5,3.4,3.4,3.4c1.9,0,3.4-1.6,3.4-3.4v-11.1c0-1.9-1.5-3.5-3.4-3.5    c-1.9,0-3.4,1.6-3.4,3.5V433.6z"/>
		<path class="st0" d="M582.6,455.7c0,1.9,1.5,3.4,3.4,3.4c1.9,0,3.4-1.5,3.4-3.4v-11.1c0-1.9-1.5-3.5-3.4-3.5    c-1.9,0-3.4,1.6-3.4,3.5V455.7z"/>
		<path class="st0" d="M572,610.7c-1.9,0-3.5,1.6-3.5,3.5c0,1.9,1.5,3.4,3.5,3.4h11.1c1.9,0,3.5-1.5,3.5-3.4c0-1.9-1.5-3.5-3.5-3.5    H572z"/>
		<path class="st0" d="M873.1,355.6c-1.9,0-3.5,1.5-3.5,3.4c0,3.6-0.1,7.3-0.3,10.9c-0.1,1.9,1.3,3.6,3.3,3.7c0.1,0,0.1,0,0.2,0    c1.8,0,3.3-1.4,3.5-3.2c0.3-3.8,0.3-7.6,0.4-11.3C876.5,357.1,875,355.6,873.1,355.6L873.1,355.6z"/>
		<path class="st0" d="M548,578c1,0,2-0.4,2.6-1.2l7.2-8.4c1.2-1.5,1.1-3.6-0.4-4.9c-1.5-1.3-3.7-1.1-4.9,0.4l-7.2,8.4    c-1.2,1.5-1.1,3.6,0.4,4.9C546.4,577.8,547.2,578,548,578z"/>
		<path class="st0" d="M586.1,326.3c1.9,0,3.4-1.5,3.4-3.4V312c0-0.8-0.5-1.8-1-2.5c-1.3-1.5-3.3-1.5-4.8-0.3    c-0.9,0.8-1.3,2-1.1,3.2v10.4C582.6,324.7,584.2,326.3,586.1,326.3z"/>
		<path class="st0" d="M582.6,345c0,1.9,1.5,3.5,3.4,3.5c1.9,0,3.4-1.6,3.4-3.5v-11.1c0-1.9-1.5-3.5-3.4-3.5c-1.9,0-3.4,1.6-3.4,3.5    V345z"/>
		<path class="st0" d="M864.2,402c-0.9,3.5-2,6.9-3.3,10.3c-0.7,1.8,0.3,3.8,2.1,4.4c0.4,0.1,0.8,0.2,1.2,0.2c1.4,0,2.7-0.8,3.2-2.3    c1.3-3.5,2.5-7.2,3.5-10.8c0.5-1.9-0.6-3.8-2.4-4.2C866.7,399,864.7,400.1,864.2,402z"/>
		<path class="st0" d="M554.3,231.2h11.1c1.9,0,3.5-1.5,3.5-3.5c0-1.9-1.5-3.5-3.5-3.5h-11.1c-1.9,0-3.5,1.6-3.5,3.5    C550.9,229.7,552.5,231.2,554.3,231.2z"/>
		<path class="st0" d="M576.5,231.2h11.1c1.9,0,3.4-1.5,3.4-3.5c0-1.9-1.5-3.5-3.4-3.5h-11.1c-1.9,0-3.4,1.6-3.4,3.5    C573,229.7,574.6,231.2,576.5,231.2z"/>
		<path class="st0" d="M598.6,231.2h11.1c1.9,0,3.4-1.5,3.4-3.5c0-1.9-1.5-3.5-3.4-3.5h-11.1c-1.9,0-3.5,1.6-3.5,3.5    C595.2,229.7,596.7,231.2,598.6,231.2z"/>
		<path class="st0" d="M620.8,231.2h11.1c1.9,0,3.4-1.5,3.4-3.5c0-1.9-1.5-3.5-3.4-3.5h-11.1c-1.9,0-3.5,1.6-3.5,3.5    C617.3,229.7,618.9,231.2,620.8,231.2z"/>
		<path class="st0" d="M533,255.1c0.6,0.7,1.4,1,2.3,1c0.8,0,1.7-0.3,2.4-0.9c1-0.8,1.3-2.2,1-3.4v-9.9c0-1.9-1.5-3.5-3.4-3.5    c-2,0-3.5,1.6-3.5,3.5v10.4c0,0.8,0.3,1.6,0.8,2.3L533,255.1z"/>
		<path class="st0" d="M753.5,231.5c3.6,0.1,7.2,0.4,10.8,0.8c0.1,0,0.2,0,0.4,0c1.8,0,3.3-1.3,3.4-3.1c0.2-1.9-1.2-3.6-3.1-3.8    c-3.7-0.4-7.5-0.7-11.2-0.8c-1.6-0.2-3.5,1.4-3.6,3.3C750.1,229.8,751.6,231.4,753.5,231.5z"/>
		<path class="st0" d="M642.9,231.2H654c1.9,0,3.5-1.5,3.5-3.5c0-1.9-1.5-3.5-3.5-3.5h-11.1c-1.9,0-3.5,1.6-3.5,3.5    C639.5,229.7,641,231.2,642.9,231.2z"/>
		<path class="st0" d="M535.3,595.5c1.9,0,3.4-1.6,3.4-3.5v-1.2l4.7-5.6c1.3-1.5,1.1-3.6-0.4-4.9c-1.5-1.2-3.7-1-4.9,0.4l-5.6,6.6    c-0.5,0.6-0.8,1.4-0.8,2.3v2.4C531.8,594,533.3,595.5,535.3,595.5z"/>
		<path class="st0" d="M731.5,231.2l11.1,0c0,0,0,0,0,0c1.9,0,3.4-1.5,3.4-3.5c0-1.9-1.6-3.5-3.5-3.5l-11.1,0    c-1.9,0-3.5,1.6-3.5,3.5C728,229.7,729.6,231.2,731.5,231.2z"/>
		<path class="st0" d="M709.4,231.2h11.1c1.9,0,3.5-1.5,3.5-3.5c0-1.9-1.5-3.5-3.5-3.5h-11.1c-1.9,0-3.5,1.6-3.5,3.5    C705.9,229.7,707.4,231.2,709.4,231.2z"/>
		<path class="st0" d="M687.2,231.2h11.1c1.9,0,3.5-1.5,3.5-3.5c0-1.9-1.6-3.5-3.5-3.5h-11.1c-1.9,0-3.5,1.6-3.5,3.5    C683.8,229.7,685.3,231.2,687.2,231.2z"/>
		<path class="st0" d="M665.1,231.2h11.1c1.9,0,3.5-1.5,3.5-3.5c0-1.9-1.5-3.5-3.5-3.5h-11.1c-1.9,0-3.5,1.6-3.5,3.5    C661.6,229.7,663.2,231.2,665.1,231.2z"/>
		<path class="st0" d="M535.3,234.2c1.7,0,3.2-1.3,3.4-3h4.6c1.9,0,3.4-1.5,3.4-3.5c0-1.9-1.5-3.5-3.4-3.5h-8c-2,0-3.5,1.6-3.5,3.5    v3.1C531.8,232.7,533.3,234.2,535.3,234.2z"/>
		<path class="st0" d="M535.3,617.6h3.5c1.9,0,3.5-1.5,3.5-3.4c0-1.9-1.5-3.5-3.5-3.5l-0.1-7.6c0-1.9-1.5-3.5-3.4-3.5    c-2,0-3.5,1.6-3.5,3.5v11.1C531.8,616.1,533.3,617.6,535.3,617.6z"/>
		<path class="st0" d="M455.8,332.2c-1.5-1.2-3.8-0.8-5,0.8c-0.7,0.8-0.9,1.9-0.6,3l2.5,10.3c0.4,1.6,1.8,2.7,3.4,2.7    c0.3,0,0.6,0,0.8-0.1c1.9-0.5,3-2.3,2.5-4.1l-2.3-9.3C457.3,334.3,456.8,333.1,455.8,332.2z"/>
		<path class="st0" d="M461.3,370.5c0.3,0,0.5,0,0.8-0.1c1.8-0.4,3-2.3,2.5-4.2l-2.6-10.8c-0.5-1.8-2.4-3-4.2-2.5    c-1.9,0.4-3,2.3-2.6,4.2l2.6,10.8C458.3,369.4,459.7,370.5,461.3,370.5z"/>
		<path class="st0" d="M478.4,297.8l-6.8,8.7c-1.2,1.5-0.9,3.7,0.6,4.9c0.6,0.5,1.4,0.8,2.1,0.8c1,0,2.1-0.5,2.7-1.3l6.8-8.7    c1.2-1.5,0.9-3.7-0.6-4.9C481.8,296.1,479.6,296.4,478.4,297.8z"/>
		<path class="st0" d="M466.5,392c0.3,0,0.5,0,0.8-0.1c1.9-0.5,3-2.3,2.5-4.2l-2.6-10.8c-0.4-1.9-2.4-3.1-4.2-2.5    c-1.9,0.4-3,2.3-2.6,4.2l2.6,10.8C463.5,390.9,465,392,466.5,392z"/>
		<path class="st0" d="M464.7,315.3l-6.8,8.7c-1.2,1.5-1,3.7,0.6,4.9c0.6,0.5,1.4,0.7,2.1,0.7c1,0,2-0.4,2.7-1.3l6.9-8.7    c1.2-1.5,0.9-3.7-0.6-4.9C468.1,313.5,465.9,313.8,464.7,315.3z"/>
		<path class="st0" d="M519.5,611.7c-1.5,1.1-1.8,3.3-0.6,4.8l6.8,8.7c0.7,0.9,1.7,1.3,2.7,1.3c0.7,0,1.5-0.2,2.1-0.7    c1.5-1.2,1.8-3.4,0.6-4.9l-6.8-8.7C523.2,610.8,521,610.5,519.5,611.7z"/>
		<path class="st0" d="M512.9,593.8l2.6,10.7c0.4,1.6,1.8,2.6,3.4,2.6c0.3,0,0.6,0,0.8-0.1c1.9-0.4,3-2.3,2.5-4.2l-2.6-10.7    c-0.5-1.9-2.3-3-4.2-2.6C513.6,590.1,512.5,591.9,512.9,593.8z"/>
		<path class="st0" d="M492.1,280.4l-6.8,8.7c-1.2,1.5-0.9,3.7,0.6,4.9c0.6,0.5,1.4,0.7,2.1,0.7c1,0,2-0.4,2.7-1.3l6.9-8.7    c1.2-1.5,0.9-3.7-0.6-4.9C495.5,278.7,493.3,278.9,492.1,280.4z"/>
		<path class="st0" d="M501.6,277.3c1,0,2.1-0.4,2.7-1.3l6.9-8.7c1.2-1.5,0.9-3.7-0.6-4.9c-1.5-1.2-3.7-0.9-4.9,0.6l-6.8,8.7    c-1.2,1.5-0.9,3.7,0.6,4.9C500.2,277.1,500.9,277.3,501.6,277.3z"/>
		<path class="st0" d="M510.2,568.1c-1.9,0.4-3,2.3-2.5,4.2l2.6,10.8c0.4,1.6,1.8,2.6,3.3,2.6c0.3,0,0.5,0,0.8-0.1    c1.9-0.5,3-2.3,2.5-4.2l-2.6-10.8C514,568.8,512.1,567.6,510.2,568.1z"/>
		<path class="st0" d="M861.4,420.5c-1.7-0.8-3.8-0.1-4.6,1.6c-1.6,3.3-3.3,6.4-5.1,9.4c-1,1.6-0.5,3.8,1.1,4.8    c0.6,0.4,1.2,0.5,1.8,0.5c1.1,0,2.3-0.6,2.9-1.6c2-3.2,3.8-6.6,5.5-10C863.8,423.4,863.1,421.3,861.4,420.5z"/>
		<path class="st0" d="M847.1,272.3c-1.6,1.1-1.9,3.3-0.8,4.8c2.1,2.9,4,5.9,5.8,9c0.6,1.1,1.8,1.7,3,1.7c0.6,0,1.1-0.2,1.7-0.5    c1.7-1,2.2-3.1,1.3-4.7c-1.9-3.3-3.9-6.5-6.1-9.6C850.9,271.6,848.7,271.3,847.1,272.3z"/>
		<path class="st0" d="M860.6,265.5c-1.2-1.5-3.4-1.6-4.9-0.4c-1.5,1.3-1.6,3.4-0.4,4.9l7.2,8.4c0.7,0.8,1.6,1.2,2.6,1.2    c0.8,0,1.6-0.3,2.2-0.8c1.5-1.3,1.6-3.4,0.4-4.9L860.6,265.5z"/>
		<path class="st0" d="M852.2,584.6c1,0,2-0.4,2.6-1.2l7.2-8.5c1.2-1.4,1.1-3.6-0.4-4.9c-1.5-1.2-3.6-1.1-4.9,0.4l-7.2,8.4    c-1.2,1.4-1,3.6,0.4,4.9C850.6,584.3,851.4,584.6,852.2,584.6z"/>
		<path class="st0" d="M1010.6,231.2h11.1c1.9,0,3.4-1.5,3.4-3.5c0-1.9-1.6-3.5-3.4-3.5h-11.1c-1.9,0-3.4,1.6-3.4,3.5    C1007.1,229.7,1008.7,231.2,1010.6,231.2z"/>
		<path class="st0" d="M1032.7,231.2h11.1c1.9,0,3.5-1.5,3.5-3.5c0-1.9-1.5-3.5-3.5-3.5h-11.1c-1.9,0-3.5,1.6-3.5,3.5    C1029.3,229.7,1030.8,231.2,1032.7,231.2z"/>
		<path class="st0" d="M864.3,316.1c1,3.4,1.8,6.9,2.4,10.5c0.3,1.6,1.8,2.8,3.4,2.8c0.2,0,0.4,0,0.6-0.1c1.9-0.3,3.1-2.2,2.8-4    c-0.7-3.8-1.6-7.4-2.6-11c-0.5-1.9-2.4-3-4.3-2.4C864.9,312.3,863.8,314.2,864.3,316.1z"/>
		<path class="st0" d="M781.9,476.8c-1.9,0.4-3.1,2.3-2.7,4.1c0.3,1.6,1.8,2.8,3.4,2.8c0.2,0,0.5,0,0.7-0.1    c3.8-0.8,7.4-1.7,10.9-2.7c1.9-0.6,2.9-2.4,2.4-4.3c-0.5-1.8-2.5-3-4.3-2.4C789,475.2,785.5,476,781.9,476.8z"/>
		<path class="st0" d="M865.5,307.9c1.8-0.6,2.7-2.6,2.1-4.4c-1.3-3.6-2.7-7.1-4.3-10.5c-0.8-1.7-2.9-2.5-4.6-1.7    c-1.8,0.8-2.5,2.8-1.7,4.6c1.5,3.2,2.8,6.6,4.1,10c0.5,1.4,1.8,2.3,3.3,2.3C864.7,308.1,865.1,308,865.5,307.9z"/>
		<path class="st0" d="M866.7,391.4c-0.4,1.9,0.9,3.7,2.7,4c0.2,0.1,0.4,0.1,0.6,0.1c1.6,0,3.1-1.2,3.4-2.8    c0.7-3.7,1.3-7.4,1.7-11.2c0.2-1.9-1.1-3.6-3-3.9c-1.9-0.2-3.6,1.1-3.9,3C867.9,384.3,867.3,387.8,866.7,391.4z"/>
		<path class="st0" d="M866.5,567.7c0.9,0,2-0.4,2.6-1.2l7.2-8.4c1.2-1.5,1-3.6-0.4-4.9c-1.5-1.3-3.6-1.1-4.9,0.4l-7.1,8.4    c-1.2,1.5-1.1,3.6,0.4,4.9C864.9,567.4,865.8,567.7,866.5,567.7z"/>
		<path class="st0" d="M988.4,231.2h11.1c1.9,0,3.5-1.5,3.5-3.5c0-1.9-1.5-3.5-3.5-3.5h-11.1c-1.9,0-3.5,1.6-3.5,3.5    C985,229.7,986.5,231.2,988.4,231.2z"/>
		<path class="st0" d="M796,239c3.3,1.1,6.7,2.5,9.9,4c0.5,0.2,1,0.3,1.5,0.3c1.3,0,2.5-0.7,3.1-2c0.8-1.7,0.1-3.8-1.7-4.6    c-3.4-1.6-7-3-10.6-4.3c-1.8-0.7-3.8,0.3-4.4,2.1C793.2,236.4,794.2,238.3,796,239z"/>
		<path class="st0" d="M834.2,262.7c1.9,1.9,3.8,3.9,5.5,6c0.7,0.8,1.7,1.2,2.6,1.2c0.8,0,1.6-0.3,2.2-0.9c1.4-1.2,1.6-3.4,0.4-4.9    c-1.9-2.2-3.8-4.3-5.9-6.4c0,0-0.6-0.6-0.6-0.6l-1.3-1.3c-1.4-1.3-3.6-1.3-4.9,0.1c-1.3,1.4-1.3,3.6,0.1,4.9L834.2,262.7z"/>
		<path class="st0" d="M848.2,261.5c0.7,0.8,1.7,1.2,2.6,1.2c0.8,0,1.6-0.3,2.3-0.8c1.5-1.2,1.6-3.4,0.4-4.9l-5.1-6v-0.7    c0-1.9-1.6-3.4-3.5-3.4c-1.9,0-3.4,1.5-3.4,3.4v2c0,0.8,0.3,1.6,0.8,2.2L848.2,261.5z"/>
		<path class="st0" d="M775.1,233.7c3.5,0.6,7,1.3,10.6,2.2c0.3,0.1,0.6,0.1,0.8,0.1c1.6,0,3-1,3.4-2.6c0.5-1.8-0.7-3.7-2.5-4.2    c-3.7-0.9-7.4-1.7-11.1-2.3c-2.1-0.3-3.7,1-4,2.9C771.9,231.6,773.2,233.4,775.1,233.7z"/>
		<path class="st0" d="M824.2,254c0.6,0.5,1.3,0.7,2.1,0.7c1,0,2.1-0.5,2.7-1.4c1.2-1.5,0.9-3.7-0.6-4.9c-3.1-2.3-6.2-4.5-9.5-6.4    c-1.6-1-3.8-0.5-4.8,1.2c-1,1.7-0.5,3.8,1.2,4.8C818.4,249.8,821.4,251.8,824.2,254z"/>
		<path class="st0" d="M966.3,231.2h11.1c1.9,0,3.5-1.5,3.5-3.5c0-1.9-1.6-3.5-3.5-3.5h-11.1c-1.9,0-3.5,1.6-3.5,3.5    C962.8,229.7,964.4,231.2,966.3,231.2z"/>
		<path class="st0" d="M845,242.7c1.9,0,3.5-1.5,3.5-3.5v-11c0-1.9-1.6-3.5-3.5-3.5c-1.9,0-3.4,1.6-3.4,3.5v11    C841.5,241.2,843,242.7,845,242.7z"/>
		<path class="st0" d="M855.5,231.2h11.1c1.9,0,3.5-1.5,3.5-3.5c0-1.9-1.5-3.5-3.5-3.5h-11.1c-1.9,0-3.5,1.6-3.5,3.5    C852.1,229.7,853.7,231.2,855.5,231.2z"/>
		<path class="st0" d="M922,231.2h11.1c1.9,0,3.4-1.5,3.4-3.5c0-1.9-1.5-3.5-3.4-3.5H922c-1.9,0-3.5,1.6-3.5,3.5    C918.5,229.7,920.1,231.2,922,231.2z"/>
		<path class="st0" d="M944.2,231.2h11.1c1.9,0,3.4-1.5,3.4-3.5c0-1.9-1.5-3.5-3.4-3.5h-11.1c-1.9,0-3.5,1.6-3.5,3.5    C940.7,229.7,942.2,231.2,944.2,231.2z"/>
		<path class="st0" d="M877.7,231.2h11.1c1.9,0,3.5-1.5,3.5-3.5c0-1.9-1.5-3.5-3.5-3.5h-11.1c-1.9,0-3.5,1.6-3.5,3.5    C874.3,229.7,875.8,231.2,877.7,231.2z"/>
		<path class="st0" d="M899.9,231.2h11.1c1.9,0,3.5-1.5,3.5-3.5c0-1.9-1.5-3.5-3.5-3.5h-11.1c-1.9,0-3.5,1.6-3.5,3.5    C896.4,229.7,897.9,231.2,899.9,231.2z"/>
		<path class="st0" d="M759.3,333.4c-1.9,0.5-3,2.4-2.6,4.2c0.7,2.9,1.2,6.4,1.4,10.3c0,1.9,1.6,3.3,3.4,3.3c0.1,0,0.1,0,0.2,0    c1.9-0.1,3.4-1.7,3.3-3.6c-0.2-4.4-0.7-8.2-1.5-11.6C763,334.1,761.1,333,759.3,333.4z"/>
		<path class="st0" d="M1157.4,279.3c0.7,1,1.8,1.5,2.9,1.5c0.7,0,1.3-0.2,1.9-0.6c1.6-1.1,2-3.2,0.9-4.8c-2.2-3.1-4.4-6.2-6.8-9.1    c-1.2-1.5-3.4-1.7-4.9-0.5c-1.5,1.2-1.7,3.4-0.5,4.9C1153.3,273.4,1155.4,276.3,1157.4,279.3z"/>
		<path class="st0" d="M1188.3,308.6c1.3,0,2.6-0.8,3.2-2c1.5-3.3,3.1-6.5,4.9-9.7c0.9-1.7,0.3-3.8-1.4-4.7    c-1.6-0.9-3.8-0.3-4.7,1.4c-1.8,3.3-3.5,6.7-5.1,10.1c-0.8,1.7,0,3.8,1.7,4.6C1187.3,308.5,1187.8,308.6,1188.3,308.6z"/>
		<path class="st0" d="M1212.3,271.6c0.9,0,1.9-0.4,2.6-1.1c2.4-2.7,4.9-5.3,7.5-7.7c1.4-1.3,1.5-3.5,0.2-4.9    c-1.3-1.4-3.5-1.4-4.9-0.1c-2.7,2.6-5.4,5.3-7.9,8.1c-1.3,1.5-1.1,3.6,0.3,4.9C1210.7,271.3,1211.5,271.6,1212.3,271.6z"/>
		<path class="st0" d="M1158.1,436.2c-2.1,3-4.4,5.8-6.7,8.3c-1.3,1.4-1.1,3.6,0.3,4.9c0.7,0.6,1.5,0.9,2.3,0.9c1,0,1.9-0.4,2.6-1.1    c2.5-2.8,4.9-5.8,7.1-9c1.1-1.6,0.7-3.7-0.8-4.8C1161.4,434.3,1159.2,434.7,1158.1,436.2z"/>
		<path class="st0" d="M1174.1,414.3c-0.8,0.2-1.5,0.6-2,1.2c-1.4-0.1-3,0.7-3.6,2.1c-1.4,3.3-3,6.6-4.7,9.6    c-0.9,1.7-0.3,3.8,1.4,4.7c0.5,0.3,1.1,0.4,1.7,0.4c1.2,0,2.4-0.6,3-1.8c1-1.7,1.9-3.6,2.8-5.4c0.3,1.4,0.6,2.8,1,4.2    c0.5,1.8,2.3,3,4.2,2.5c1.8-0.4,3-2.3,2.6-4.2c-0.9-3.5-1.6-7-2.2-10.6C1177.8,415.2,1176,414,1174.1,414.3z"/>
		<path class="st0" d="M1266.9,235c0.4,0,0.8-0.1,1.2-0.2c3.4-1.3,6.8-2.4,10.3-3.4c1.8-0.5,2.9-2.4,2.4-4.3    c-0.5-1.9-2.5-2.9-4.3-2.4c-3.7,1-7.2,2.2-10.8,3.5c-1.8,0.7-2.7,2.6-2,4.4C1264.2,234.1,1265.5,235,1266.9,235z"/>
		<path class="st0" d="M1228.4,256.4c0.8,0,1.5-0.3,2.2-0.8c2.8-2.2,5.7-4.3,8.7-6.4c1.6-1,2-3.2,1-4.8c-1.1-1.6-3.2-2-4.8-0.9    c-3.1,2.1-6.2,4.3-9.2,6.7c-1.5,1.2-1.7,3.4-0.5,4.9C1226.4,256,1227.4,256.4,1228.4,256.4z"/>
		<path class="st0" d="M1331.9,226.8c3.5,0.4,7.2,0.9,10.7,1.5c0.2,0,0.4,0,0.6,0c1.7,0,3.1-1.2,3.4-2.9c0.3-1.9-1-3.7-2.8-4    c-3.8-0.6-7.5-1.1-11.2-1.5c-2.1-0.2-3.6,1.2-3.8,3.1C1328.6,224.9,1330,226.6,1331.9,226.8z"/>
		<path class="st0" d="M1310.2,226.1c0.1,0,0.1,0,0.1,0c3.6-0.1,7.2-0.2,10.8,0c0,0,0,0,0.1,0c1.9,0,3.4-1.5,3.4-3.3    c0.1-1.9-1.4-3.5-3.3-3.6c-3.8-0.1-7.6-0.1-11.3,0c-1.9,0.1-3.4,1.7-3.3,3.6C1306.8,224.7,1308.3,226.1,1310.2,226.1z"/>
		<path class="st0" d="M1246.8,244.2c0.6,0,1.2-0.1,1.7-0.4c3.1-1.7,6.4-3.3,9.6-4.8c1.8-0.8,2.5-2.9,1.7-4.6    c-0.8-1.7-2.9-2.5-4.6-1.7c-3.5,1.6-6.8,3.3-10.1,5.1c-1.7,0.9-2.3,3-1.3,4.7C1244.4,243.5,1245.6,244.2,1246.8,244.2z"/>
		<path class="st0" d="M1183.3,438.1c-0.6-1.8-2.5-2.8-4.4-2.2c-1.8,0.6-2.8,2.6-2.2,4.4c1.2,3.7,2.5,7.2,4,10.6    c0.6,1.3,1.8,2.1,3.2,2.1c0.4,0,0.9-0.1,1.3-0.3c1.8-0.7,2.6-2.7,1.8-4.5C1185.7,445,1184.4,441.6,1183.3,438.1z"/>
		<path class="st0" d="M812.4,466.6c-3.1,1.5-6.4,2.9-9.9,4.3c-1.8,0.7-2.7,2.7-2,4.5c0.5,1.4,1.8,2.2,3.2,2.2    c0.4,0,0.8-0.1,1.2-0.2c3.7-1.4,7.1-2.9,10.4-4.5c1.7-0.8,2.4-2.9,1.6-4.6C816.2,466.4,814.1,465.7,812.4,466.6z"/>
		<path class="st0" d="M1207.7,490.1c0.8,0,1.7-0.3,2.4-0.9c1.4-1.3,1.5-3.5,0.2-4.9c-2.5-2.6-4.8-5.4-7-8.2    c-1.1-1.5-3.3-1.8-4.8-0.6c-1.5,1.2-1.8,3.3-0.6,4.8c2.3,3,4.8,5.9,7.4,8.7C1205.9,489.7,1206.8,490.1,1207.7,490.1z"/>
		<path class="st0" d="M1197.4,490.4c1.9,0,3.5-1.5,3.5-3.5c0-1.9-1.5-3.4-3.5-3.4h-11c-1.9,0-3.5,1.5-3.5,3.4    c0,1.9,1.5,3.5,3.5,3.5H1197.4z"/>
		<path class="st0" d="M1191.6,458c-0.9-1.7-3-2.3-4.7-1.5c-1.7,0.9-2.3,3-1.5,4.7c1.8,3.4,3.7,6.7,5.7,9.8c0.7,1,1.8,1.6,2.9,1.6    c0.7,0,1.3-0.2,1.9-0.6c1.6-1,2.1-3.2,1.1-4.8C1195.1,464.3,1193.3,461.2,1191.6,458z"/>
		<path class="st0" d="M1171.6,308.2c1.1,3.4,2.2,6.8,3.1,10.4c0.4,1.7,2.1,2.7,3.6,2.6c-0.4,1.2-0.8,2.4-1.2,3.7    c-0.6,1.8,0.5,3.8,2.3,4.3c0.4,0.1,0.7,0.2,1,0.2c1.5,0,2.9-1,3.3-2.4c1.1-3.5,2.2-6.9,3.5-10.3c0.7-1.8-0.2-3.8-2-4.5    c-1.8-0.7-3.8,0.2-4.5,2c-0.1,0-0.1,0.2-0.1,0.2c-0.8-2.8-1.6-5.6-2.5-8.4c-0.6-1.8-2.5-2.8-4.4-2.2    C1171.9,304.4,1171,306.4,1171.6,308.2z"/>
		<path class="st0" d="M1184.9,603.9c0-1.9-1.5-3.5-3.4-3.5c-1.9,0-3.5,1.6-3.5,3.5v11c0,1.9,1.5,3.5,3.5,3.5c1.9,0,3.4-1.6,3.4-3.5    V603.9z"/>
		<path class="st0" d="M1163,288.5c1.7,3.1,3.3,6.4,4.7,9.7c0.6,1.3,1.8,2.1,3.2,2.1c0.5,0,1-0.1,1.4-0.3c1.8-0.8,2.5-2.8,1.8-4.5    c-1.5-3.5-3.2-6.9-5-10.2c-0.9-1.7-3-2.3-4.7-1.4C1162.7,284.7,1162.1,286.8,1163,288.5z"/>
		<path class="st0" d="M1184.9,559.6c0-1.9-1.5-3.5-3.4-3.5c-1.9,0-3.5,1.6-3.5,3.5v11.1c0,1.9,1.5,3.4,3.5,3.4    c1.9,0,3.4-1.5,3.4-3.4V559.6z"/>
		<path class="st0" d="M1184.9,581.7c0-1.9-1.5-3.5-3.4-3.5c-1.9,0-3.5,1.6-3.5,3.5v11.1c0,1.9,1.5,3.5,3.5,3.5    c1.9,0,3.4-1.6,3.4-3.5V581.7z"/>
		<path class="st0" d="M1184.9,493.1c0-1.9-1.5-3.5-3.4-3.5c-1.9,0-3.5,1.5-3.5,3.5v11.1c0,1.9,1.5,3.4,3.5,3.4    c1.9,0,3.4-1.6,3.4-3.4V493.1z"/>
		<path class="st0" d="M1184.9,537.4c0-1.9-1.5-3.5-3.4-3.5c-1.9,0-3.5,1.5-3.5,3.5v11.1c0,1.9,1.5,3.5,3.5,3.5    c1.9,0,3.4-1.5,3.4-3.5V537.4z"/>
		<path class="st0" d="M1184.9,515.3c0-1.9-1.5-3.5-3.4-3.5c-1.9,0-3.5,1.6-3.5,3.5v11.1c0,1.9,1.5,3.5,3.5,3.5    c1.9,0,3.4-1.5,3.4-3.5V515.3z"/>
		<path class="st0" d="M1198.9,289.2c1.1,0,2.2-0.6,2.9-1.6c2-3,4-6,6.2-8.8c1.2-1.5,0.9-3.7-0.6-4.9c-1.5-1.1-3.7-0.9-4.8,0.6    c-2.3,3-4.5,6.1-6.5,9.3c-1,1.6-0.6,3.8,1,4.8C1197.6,289,1198.3,289.2,1198.9,289.2z"/>
		<path class="st0" d="M1474.9,291.2c0,1.9,1.5,3.5,3.4,3.5c1.9,0,3.5-1.6,3.5-3.5v-11.1c0-1.9-1.6-3.5-3.5-3.5    c-1.9,0-3.4,1.6-3.4,3.5V291.2z"/>
		<path class="st0" d="M1474.9,313.4c0,1.9,1.5,3.5,3.4,3.5c1.9,0,3.5-1.6,3.5-3.5v-11.1c0-1.9-1.6-3.5-3.5-3.5    c-1.9,0-3.4,1.6-3.4,3.5V313.4z"/>
		<path class="st0" d="M1478.4,272.5c1.9,0,3.5-1.5,3.5-3.5V258c0-1.9-1.6-3.5-3.5-3.5c-1.9,0-3.4,1.6-3.4,3.5V269    C1474.9,271,1476.5,272.5,1478.4,272.5z"/>
		<path class="st0" d="M1474.9,335.5c0,1.9,1.5,3.5,3.4,3.5c1.9,0,3.5-1.5,3.5-3.5v-11c0-1.9-1.6-3.5-3.5-3.5    c-1.9,0-3.4,1.5-3.4,3.5V335.5z"/>
		<path class="st0" d="M1474.9,357.6c0,1.9,1.5,3.5,3.4,3.5c1.9,0,3.5-1.5,3.5-3.5v-11.1c0-1.9-1.6-3.5-3.5-3.5    c-1.9,0-3.4,1.6-3.4,3.5V357.6z"/>
		<path class="st0" d="M1508.2,535.5c0.4,3.6,0.7,7.2,0.9,10.9c0.1,1.8,1.6,3.3,3.4,3.3c0,0,0.1,0,0.2,0c1.9-0.1,3.4-1.7,3.3-3.7    c-0.2-3.8-0.5-7.6-0.9-11.2c-0.2-1.9-1.6-3.3-3.8-3.1C1509.3,531.9,1508,533.6,1508.2,535.5z"/>
		<path class="st0" d="M1478.5,450.8c-1.5,1.2-1.8,3.3-0.6,4.9c2.2,2.8,4.3,5.7,6.3,8.7c0.7,1,1.8,1.6,2.9,1.6    c0.7,0,1.3-0.2,1.9-0.5c1.6-1.1,2-3.2,1-4.8c-2.1-3.2-4.4-6.2-6.7-9.2C1482.2,449.8,1480,449.6,1478.5,450.8z"/>
		<path class="st0" d="M1353.3,230.4c3.5,0.8,7,1.8,10.5,2.8c0.3,0.1,0.7,0.2,1,0.2c1.5,0,2.9-1,3.3-2.5c0.5-1.8-0.5-3.8-2.3-4.3    c-3.6-1.1-7.2-2.1-10.9-2.9c-1.8-0.5-3.7,0.7-4.2,2.6C1350.3,228.1,1351.4,230,1353.3,230.4z"/>
		<path class="st0" d="M1474.9,379.8c0,1.9,1.5,3.5,3.4,3.5c1.9,0,3.5-1.6,3.5-3.5v-11c0-1.9-1.6-3.5-3.5-3.5    c-1.9,0-3.4,1.6-3.4,3.5V379.8z"/>
		<path class="st0" d="M1498.7,493.2c1.3,3.4,2.4,6.8,3.4,10.3c0.4,1.5,1.8,2.5,3.3,2.5c0.3,0,0.6,0,1-0.1c1.8-0.5,2.9-2.4,2.4-4.3    c-1.1-3.7-2.2-7.3-3.5-10.8c-0.7-1.8-2.6-2.7-4.4-2.1C1499,489.5,1498,491.5,1498.7,493.2z"/>
		<path class="st0" d="M1489.8,473.5c1.7,3.1,3.3,6.4,4.8,9.7c0.6,1.3,1.8,2,3.2,2c0.5,0,0.9-0.1,1.4-0.3c1.7-0.8,2.5-2.9,1.7-4.6    c-1.6-3.5-3.2-6.8-5-10.2c-0.9-1.6-3.1-2.3-4.7-1.3C1489.5,469.8,1488.9,471.9,1489.8,473.5z"/>
		<path class="st0" d="M1507.4,510c-1.9,0.4-3.1,2.2-2.7,4.1c0.8,3.5,1.4,7.1,2.1,10.7c0.2,1.7,1.7,2.9,3.4,2.9c0.2,0,0.4,0,0.5,0    c1.9-0.3,3.2-2.1,2.9-4c-0.6-3.7-1.3-7.4-2.1-11C1511,510.7,1509.2,509.5,1507.4,510z"/>
		<path class="st0" d="M1416.5,258.2c0.6,0.4,1.3,0.6,1.9,0.6c1,0,2-0.4,2.7-1.3l4.2-5.3c1.2-1.5,0.9-3.7-0.6-4.9    c-1.5-1.2-3.7-0.9-4.9,0.6l-2.3,2.8c-0.3-0.2-0.7-0.4-1-0.6c-1.6-1-3.7-0.6-4.8,1.1c-1,1.6-0.5,3.7,1.1,4.8    C1414.2,256.7,1415.3,257.5,1416.5,258.2z"/>
		<path class="st0" d="M1429.6,244.9c1,0,2-0.4,2.7-1.3l6.9-8.7c1.2-1.5,0.9-3.7-0.6-4.8c-1.5-1.2-3.6-1-4.9,0.5l-6.9,8.6    c-1.2,1.5-0.9,3.7,0.5,4.9C1428.1,244.6,1428.8,244.9,1429.6,244.9z"/>
		<path class="st0" d="M1474.9,402c0,1.9,1.5,3.5,3.4,3.5c1.9,0,3.5-1.6,3.5-3.5v-11.1c0-1.9-1.6-3.5-3.5-3.5    c-1.9,0-3.4,1.6-3.4,3.5V402z"/>
		<path class="st0" d="M1444.2,229.2h11.1c1.9,0,3.5-1.6,3.5-3.5c0-1.9-1.6-3.4-3.5-3.4h-11.1c-1.9,0-3.5,1.5-3.5,3.4    C1440.7,227.6,1442.3,229.2,1444.2,229.2z"/>
		<path class="st0" d="M1374.1,236.7c3.4,1.2,6.7,2.6,10.1,4c0.4,0.1,0.9,0.3,1.4,0.3c1.4,0,2.6-0.8,3.2-2.1c0.8-1.7,0-3.8-1.8-4.6    c-3.5-1.5-6.9-2.9-10.5-4.1c-1.8-0.7-3.8,0.3-4.4,2.1C1371.4,234,1372.3,236,1374.1,236.7z"/>
		<path class="st0" d="M1403.7,250.3c0.5,0.3,1.1,0.5,1.7,0.5c1.2,0,2.4-0.6,3-1.8c1-1.7,0.4-3.8-1.3-4.7c-3.3-1.9-6.6-3.6-10-5.3    c-1.8-0.9-3.8-0.2-4.6,1.6c-0.8,1.7-0.2,3.8,1.6,4.6C1397.3,246.9,1400.5,248.5,1403.7,250.3z"/>
		<path class="st0" d="M1474.9,424.1c0,1.9,1.5,3.4,3.4,3.4c1.9,0,3.5-1.6,3.5-3.4V413c0-1.9-1.6-3.5-3.5-3.5    c-1.9,0-3.4,1.5-3.4,3.5V424.1z"/>
		<path class="st0" d="M1462.7,435.4c-0.9,1.4-0.8,3.3,0.5,4.5c2.7,2.4,5.2,4.9,7.7,7.6c0.7,0.7,1.6,1.1,2.5,1.1    c0.8,0,1.7-0.3,2.4-0.9c1.4-1.3,1.5-3.5,0.2-4.9c-2-2.1-4-4.1-6.1-6.1h6.5c1.9,0,3.4-1.5,3.4-3.5c0-1.9-1.5-3.5-3.4-3.5h-11.1    c-1.9,0-3.5,1.6-3.5,3.5C1461.8,434,1462.1,434.8,1462.7,435.4z"/>
		<path class="st0" d="M1478.4,232.4c-1.9,0-3.4,1.5-3.4,3.4v11.1c0,1.9,1.5,3.4,3.4,3.4c1.9,0,3.5-1.5,3.5-3.4v-11.1    C1481.8,233.9,1480.3,232.4,1478.4,232.4z"/>
		<path class="st0" d="M1466.3,229.2h11.1c1.9,0,3.4-1.6,3.4-3.5c0-1.9-1.5-3.4-3.4-3.4h-11.1c-1.9,0-3.4,1.5-3.4,3.4    C1462.9,227.6,1464.4,229.2,1466.3,229.2z"/>
		<path class="st0" d="M1288.2,228.9c0.2,0,0.4,0,0.7-0.1c3.5-0.7,7.1-1.3,10.7-1.7c1.9-0.2,3.2-2,3-3.9c-0.2-1.9-2.1-3.3-3.9-3    c-3.8,0.5-7.5,1.1-11.2,1.8c-1.9,0.4-3.1,2.2-2.7,4.1C1285.1,227.7,1286.6,228.9,1288.2,228.9z"/>
		<path class="st0" d="M1020,480.8H1009c-1.9,0-3.5,1.5-3.5,3.5c0,1.9,1.6,3.4,3.5,3.4h11.1c1.9,0,3.4-1.5,3.4-3.4    C1023.5,482.3,1021.9,480.8,1020,480.8z"/>
		<path class="st0" d="M1030.7,617.6c1.9,0,3.5-1.5,3.5-3.4c0-1.9-1.6-3.5-3.5-3.5h-11.1c-1.9,0-3.5,1.6-3.5,3.5    c0,1.9,1.5,3.4,3.5,3.4H1030.7z"/>
		<path class="st0" d="M842.2,587.5c-0.5,0.6-0.7,1.3-0.7,2.1v11c0,1.9,1.5,3.4,3.4,3.4c1.9,0,3.5-1.5,3.5-3.4V590    c0.2-1.2-0.3-2.5-1.4-3.3C845.5,585.6,843.3,586,842.2,587.5z"/>
		<path class="st0" d="M850.3,439.6c-1.5-1.2-3.7-1-4.9,0.6c-2.2,2.8-4.6,5.5-7.1,8c-1.3,1.3-1.3,3.5,0,4.9c0.7,0.7,1.6,1,2.5,1    c0.9,0,1.8-0.3,2.5-1c2.7-2.7,5.3-5.6,7.6-8.5C852.1,443,851.8,440.8,850.3,439.6z"/>
		<path class="st0" d="M752.9,328.9c0.7,0.9,1.7,1.4,2.7,1.4c0.7,0,1.5-0.2,2.1-0.7c1.6-1.1,1.8-3.3,0.7-4.9    c-2.5-3.4-5.8-5.9-10-7.8c-1.7-0.8-3.8,0-4.6,1.7c-0.8,1.7,0,3.8,1.8,4.6C748.7,324.6,751,326.5,752.9,328.9z"/>
		<path class="st0" d="M1017.5,545.6c0.7,0.7,1.6,1,2.5,1c0.9,0,1.7-0.3,2.4-0.9c1.4-1.3,1.4-3.5,0.1-4.9l-7.7-8    c-1.3-1.4-3.5-1.4-4.9-0.1c-1.4,1.3-1.5,3.5-0.1,4.9L1017.5,545.6z"/>
		<path class="st0" d="M1048.1,577.6c0.7,0.7,1.6,1.1,2.5,1.1c0.9,0,1.7-0.3,2.4-1c1.4-1.3,1.4-3.5,0.1-4.9l-7.7-8    c-1.3-1.4-3.5-1.4-4.9-0.1c-1.4,1.3-1.4,3.5-0.1,4.9L1048.1,577.6z"/>
		<path class="st0" d="M1038.3,614.2c0,1.9,1.5,3.4,3.5,3.4h11c1.9,0,3.5-1.5,3.5-3.4c0-1.9-1.5-3.5-3.5-3.5h-11    C1039.8,610.7,1038.3,612.3,1038.3,614.2z"/>
		<path class="st0" d="M1025.3,548.7c-1.4,1.3-1.4,3.5-0.1,4.9l7.7,8c0.7,0.7,1.6,1.1,2.5,1.1c0.9,0,1.7-0.3,2.4-1    c1.4-1.3,1.4-3.5,0.1-4.9l-7.7-8C1028.8,547.4,1026.6,547.3,1025.3,548.7z"/>
		<path class="st0" d="M1064.3,480.4c0,0-0.1,0-0.2,0c-3.5,0.2-7.1,0.3-10.9,0.4c-1.9,0-3.4,1.6-3.4,3.5c0,1.9,1.6,3.4,3.5,3.4h0    c3.9,0,7.6-0.1,11.2-0.4c1.9-0.1,3.4-1.8,3.3-3.7C1067.7,481.8,1066.1,480.4,1064.3,480.4z"/>
		<path class="st0" d="M1006.8,507.6c1.9,0,3.5-1.6,3.5-3.4v-11.1c0-1.9-1.5-3.5-3.5-3.5c-1.9,0-3.4,1.5-3.4,3.5v11.1    C1003.3,506.1,1004.9,507.6,1006.8,507.6z"/>
		<path class="st0" d="M1003.3,526.3c0,1.9,1.5,3.5,3.4,3.5c1.9,0,3.5-1.5,3.5-3.5v-11.1c0-1.9-1.5-3.5-3.5-3.5    c-1.9,0-3.4,1.6-3.4,3.5V526.3z"/>
		<path class="st0" d="M703.2,319.7h11.1c1.9,0,3.4-1.5,3.4-3.5c0-1.9-1.5-3.5-3.4-3.5h-11.1c-1.9,0-3.5,1.5-3.5,3.5    C699.8,318.2,701.3,319.7,703.2,319.7z"/>
		<path class="st0" d="M751.2,377c-2.1,2.4-4.6,4.2-7.7,5.6c-1.7,0.8-2.5,2.8-1.7,4.6c0.6,1.3,1.8,2,3.1,2c0.5,0,1-0.1,1.4-0.3    c4-1.8,7.3-4.3,10-7.4c1.3-1.5,1.1-3.6-0.3-4.9C754.6,375.4,752.4,375.5,751.2,377z"/>
		<path class="st0" d="M736.9,313.7c-3.3-0.5-7-0.8-11.4-0.9c-2.2-0.1-3.5,1.5-3.6,3.4c0,1.9,1.4,3.5,3.4,3.5    c4.1,0.2,7.6,0.4,10.6,0.8c0.2,0,0.4,0,0.5,0c1.7,0,3.2-1.2,3.4-2.9C740.1,315.8,738.8,314,736.9,313.7z"/>
		<path class="st0" d="M830.5,455.2c-2.8,2.2-5.7,4.2-8.7,6.1c-1.6,1-2.1,3.2-1.1,4.8c0.7,1.1,1.8,1.6,2.9,1.6    c0.6,0,1.3-0.2,1.9-0.5c3.2-2,6.4-4.2,9.3-6.6c1.5-1.2,1.8-3.4,0.6-4.9C834.1,454.3,831.9,454,830.5,455.2z"/>
		<path class="st0" d="M471.8,413.5c0.3,0,0.5,0,0.8-0.1c1.9-0.5,3-2.3,2.6-4.2l-2.6-10.7c-0.5-1.8-2.4-3-4.2-2.5    c-1.9,0.4-3,2.3-2.6,4.2l2.6,10.7C468.8,412.4,470.2,413.5,471.8,413.5z"/>
		<path class="st0" d="M761.6,355.4c-1.9-0.2-3.6,1.3-3.8,3.1c-0.4,3.7-1,7.1-2,10c-0.6,1.8,0.4,3.8,2.2,4.4    c0.3,0.1,0.7,0.2,1.1,0.2c1.4,0,2.8-0.9,3.3-2.4c1.2-3.4,2-7.3,2.3-11.6C764.9,357.2,763.5,355.6,761.6,355.4z"/>
		<path class="st0" d="M697.1,335.7c1.9,0,3.5-1.6,3.5-3.5v-11.1c0-1.9-1.6-3.5-3.5-3.5c-1.9,0-3.4,1.5-3.4,3.5v11.1    C693.6,334.2,695.2,335.7,697.1,335.7z"/>
		<path class="st0" d="M1143.8,262.7c0.7,0.7,1.6,1,2.4,1c0.9,0,1.8-0.3,2.4-1c1.4-1.4,1.4-3.5,0-4.9c-2.7-2.7-5.6-5.3-8.5-7.6    c-1.5-1.2-3.7-1-4.9,0.5c-1.2,1.5-0.9,3.7,0.5,4.9C1138.6,257.8,1141.3,260.2,1143.8,262.7z"/>
		<path class="st0" d="M697.1,380c1.9,0,3.5-1.5,3.5-3.4v-11.1c0-1.9-1.6-3.4-3.5-3.4c-1.9,0-3.4,1.5-3.4,3.4v11.1    C693.6,378.5,695.2,380,697.1,380z"/>
		<path class="st0" d="M733.8,385.3c-3.1,0.5-6.6,0.7-10.5,0.7h-6c-1.9,0-3.5,1.5-3.5,3.5c0,1.9,1.5,3.5,3.5,3.5h6    c4.2,0,8.1-0.3,11.6-0.8c1.9-0.3,3.2-2.1,2.9-4C737.5,386.4,735.6,385,733.8,385.3z"/>
		<path class="st0" d="M706.2,386.1h-6c-0.6-1.1-1.7-1.9-3.1-1.9c-1.9,0-3.4,1.6-3.4,3.5v1.9c0,1.9,1.5,3.5,3.4,3.5h9.1    c1.9,0,3.4-1.5,3.4-3.5C709.7,387.6,708.1,386.1,706.2,386.1z"/>
		<path class="st0" d="M697.1,357.9c1.9,0,3.5-1.5,3.5-3.5v-11.1c0-1.9-1.6-3.4-3.5-3.4c-1.9,0-3.4,1.5-3.4,3.4v11.1    C693.6,356.3,695.2,357.9,697.1,357.9z"/>
		<path class="st0" d="M1062.5,328.9c0.7,0.9,1.7,1.4,2.8,1.4c0.7,0,1.4-0.2,2.1-0.7c1.6-1.1,1.8-3.3,0.7-4.9    c-2.5-3.4-5.8-5.9-10-7.8c-1.7-0.8-3.8,0-4.6,1.7c-0.8,1.7,0,3.8,1.7,4.6C1058.3,324.6,1060.7,326.5,1062.5,328.9z"/>
		<path class="st0" d="M1054.6,389.2c0.5,0,1-0.1,1.4-0.3c4-1.8,7.3-4.3,10-7.4c1.3-1.5,1.1-3.6-0.4-4.9c-1.5-1.3-3.6-1.1-4.9,0.3    c-2,2.4-4.6,4.2-7.7,5.6c-1.7,0.8-2.5,2.8-1.7,4.6C1052.1,388.4,1053.3,389.2,1054.6,389.2z"/>
		<path class="st0" d="M1034.9,319.7c4.1,0.2,7.6,0.4,10.6,0.8c0.2,0,0.4,0,0.5,0c1.7,0,3.2-1.2,3.4-2.9c0.3-1.9-1-3.6-2.9-3.9    c-3.3-0.5-7-0.8-11.4-0.9c-2.3-0.1-3.5,1.5-3.6,3.4C1031.5,318.1,1033,319.7,1034.9,319.7z"/>
		<path class="st0" d="M1012.9,319.7h11.1c1.9,0,3.5-1.5,3.5-3.5c0-1.9-1.5-3.5-3.5-3.5h-11.1c-1.9,0-3.5,1.5-3.5,3.5    C1009.4,318.2,1011,319.7,1012.9,319.7z"/>
		<path class="st0" d="M1066.4,337.7c0.7,2.9,1.2,6.4,1.3,10.3c0.1,1.9,1.6,3.3,3.5,3.3c0,0,0.1,0,0.1,0c1.9-0.1,3.4-1.7,3.3-3.6    c-0.2-4.4-0.7-8.2-1.5-11.6c-0.5-1.9-2.4-3-4.2-2.5C1067.1,333.9,1066,335.8,1066.4,337.7z"/>
		<path class="st0" d="M1076.6,232.5c3.6,0.4,7.1,0.9,10.7,1.6c0.2,0,0.4,0,0.6,0c1.6,0,3.1-1.2,3.4-2.8c0.4-1.9-0.9-3.7-2.8-4    c-3.7-0.7-7.4-1.2-11.2-1.6c-1.8-0.2-3.6,1.2-3.8,3.1C1073.3,230.6,1074.7,232.4,1076.6,232.5z"/>
		<path class="st0" d="M1071.3,355.4c-2.1-0.2-3.6,1.3-3.8,3.1c-0.4,3.7-1.1,7.1-2,10c-0.6,1.8,0.4,3.8,2.2,4.4    c0.4,0.1,0.8,0.2,1.1,0.2c1.4,0,2.8-0.9,3.3-2.4c1.2-3.4,1.9-7.3,2.3-11.6C1074.6,357.2,1073.2,355.6,1071.3,355.4z"/>
		<path class="st0" d="M1127.2,249.3c0.6,0.4,1.2,0.6,1.9,0.6c1.1,0,2.2-0.6,2.9-1.6c1-1.6,0.6-3.8-1-4.8c-3.2-2-6.5-3.9-10-5.6    c-1.7-0.9-3.8-0.2-4.6,1.6c-0.9,1.7-0.2,3.8,1.6,4.6C1121.1,245.7,1124.2,247.5,1127.2,249.3z"/>
		<path class="st0" d="M1097.8,236.5c3.5,0.9,6.8,2,10.2,3.3c0.4,0.1,0.8,0.2,1.2,0.2c1.4,0,2.7-0.9,3.2-2.2c0.7-1.8-0.2-3.8-2-4.5    c-3.6-1.4-7.2-2.5-10.8-3.5c-1.8-0.6-3.7,0.6-4.2,2.4C1094.9,234.2,1096,236.1,1097.8,236.5z"/>
		<path class="st0" d="M1054.8,231.2c3.6,0,7.2,0.2,10.9,0.4c0.1,0,0.2,0,0.2,0c1.8,0,3.3-1.4,3.5-3.3c0.1-1.9-1.3-3.6-3.3-3.6    c-3.8-0.2-7.6-0.3-11.2-0.4c-1.9,0.2-3.5,1.5-3.5,3.4C1051.4,229.7,1052.9,231.2,1054.8,231.2z"/>
		<path class="st0" d="M1006.8,335.7c1.9,0,3.5-1.6,3.5-3.5v-11.1c0-1.9-1.5-3.5-3.5-3.5c-1.9,0-3.4,1.5-3.4,3.5v11.1    C1003.3,334.2,1004.9,335.7,1006.8,335.7z"/>
		<path class="st0" d="M1006.8,380c1.9,0,3.5-1.6,3.5-3.5v-11.1c0-1.9-1.5-3.5-3.5-3.5c-1.9,0-3.4,1.5-3.4,3.5v11.1    C1003.3,378.5,1004.9,380,1006.8,380z"/>
		<path class="st0" d="M1118.1,475.6c0.4,0,0.9-0.1,1.4-0.3c3.6-1.5,7-3.2,10.3-5c1.7-0.9,2.3-3,1.4-4.7c-0.9-1.7-3-2.3-4.7-1.4    c-3.1,1.7-6.3,3.2-9.7,4.7c-1.7,0.7-2.5,2.8-1.8,4.5C1115.5,474.9,1116.8,475.6,1118.1,475.6z"/>
		<path class="st0" d="M1075.7,486.3c3.9-0.4,7.6-0.9,11.2-1.6c1.9-0.3,3.1-2.1,2.8-4c-0.3-1.9-2.1-3.2-4-2.8    c-3.5,0.6-7,1.1-10.8,1.5c-1.9,0.2-3.3,1.9-3.1,3.8c0.2,1.8,1.7,3.1,3.4,3.1C1075.4,486.4,1075.6,486.4,1075.7,486.3z"/>
		<path class="st0" d="M1097.9,482.5c3.8-0.9,7.4-2,10.9-3.1c1.8-0.6,2.8-2.6,2.2-4.3c-0.6-1.8-2.5-2.8-4.4-2.2    c-3.3,1.1-6.8,2.1-10.4,2.9c-1.8,0.5-3,2.4-2.5,4.2c0.4,1.6,1.8,2.6,3.4,2.6C1097.4,482.6,1097.7,482.5,1097.9,482.5z"/>
		<path class="st0" d="M1067.3,589c0-0.9-0.3-1.7-1-2.4l-5.6-5.9c-1.3-1.3-3.6-1.4-4.9-0.1c-1.4,1.3-1.5,3.5-0.1,4.9l4.7,4.9v1.6    c0,1.9,1.5,3.4,3.4,3.4c1.9,0,3.5-1.6,3.5-3.4V589z"/>
		<path class="st0" d="M1006.8,357.9c1.9,0,3.5-1.5,3.5-3.5v-11c0-1.9-1.5-3.5-3.5-3.5c-1.9,0-3.4,1.6-3.4,3.5v11    C1003.3,356.3,1004.9,357.9,1006.8,357.9z"/>
		<path class="st0" d="M1063.9,599.6c-1.9,0-3.4,1.5-3.4,3.5v11.1c0,1.9,1.5,3.4,3.4,3.4c1.9,0,3.5-1.5,3.5-3.4v-11.1    C1067.3,601.2,1065.8,599.6,1063.9,599.6z"/>
		<path class="st0" d="M1015.9,386.1h-6.1c-0.6-1.1-1.7-1.9-3.1-1.9c-1.9,0-3.4,1.5-3.4,3.4v1.9c0,1.9,1.5,3.5,3.4,3.5h9.2    c1.9,0,3.4-1.5,3.4-3.5C1019.4,387.6,1017.8,386.1,1015.9,386.1z"/>
		<path class="st0" d="M1139.4,464.3c3.1-2.2,6.2-4.5,9-7c1.4-1.3,1.6-3.5,0.3-4.9c-1.3-1.5-3.4-1.6-4.9-0.3    c-2.6,2.4-5.5,4.6-8.4,6.6c-1.6,1.1-1.9,3.3-0.9,4.8c0.7,1,1.7,1.5,2.9,1.5C1138.2,464.9,1138.8,464.8,1139.4,464.3z"/>
		<path class="st0" d="M1045.6,484.2c0-1.9-1.5-3.5-3.5-3.5h-11.1c-1.9,0-3.5,1.5-3.5,3.5c0,1.9,1.5,3.4,3.5,3.4h11.1    C1044.1,487.7,1045.6,486.1,1045.6,484.2z"/>
		<path class="st0" d="M1044.5,392.2c1.9-0.3,3.2-2.1,2.9-4c-0.3-1.8-2.2-3.2-4-2.9c-3.1,0.5-6.6,0.7-10.5,0.7h-6    c-1.9,0-3.5,1.5-3.5,3.5c0,1.9,1.5,3.5,3.5,3.5h6C1037.2,393,1041.1,392.7,1044.5,392.2z"/>
		<path class="st0" d="M616.3,610.7c-1.9,0-3.5,1.6-3.5,3.5c0,1.9,1.6,3.4,3.5,3.4h7.4c1.5-0.1,3-0.2,4.5-0.4    c1.5-0.4,2.6-1.5,2.6-3.1c0-1.9-1.5-3.5-3.4-3.5H616.3z"/>
		<path class="st0" d="M1267.5,574.4c-1.4,1.3-1.5,3.4-0.2,4.9c2.5,2.8,5.1,5.5,7.8,8.1c0.7,0.7,1.5,1,2.4,1c0.9,0,1.8-0.4,2.5-1    c1.3-1.4,1.3-3.6-0.1-4.9c-2.6-2.5-5.1-5.1-7.5-7.8C1271.1,573.2,1268.9,573.1,1267.5,574.4z"/>
		<path class="st0" d="M1239.8,507.7c-1.6-1-3.8-0.5-4.8,1.2c-0.9,1.6-0.4,3.8,1.2,4.7c3.2,1.9,6.5,3.7,9.9,5.4    c0.5,0.2,1,0.3,1.6,0.3c1.2,0,2.5-0.7,3.1-1.9c0.9-1.7,0.2-3.8-1.5-4.6C1246.1,511.3,1242.9,509.5,1239.8,507.7z"/>
		<path class="st0" d="M1253.1,561.7c2.2,3.1,4.4,6.1,6.8,9c0.7,0.8,1.7,1.3,2.7,1.3c0.7,0,1.5-0.2,2.1-0.8c1.5-1.2,1.8-3.4,0.6-4.9    c-2.3-2.8-4.5-5.7-6.6-8.7c-1.1-1.6-3.3-1.9-4.8-0.8C1252.3,558,1252,560.1,1253.1,561.7z"/>
		<path class="st0" d="M1246.9,539.3c-1-1.7-3.1-2.2-4.7-1.2c-1.7,1-2.2,3.1-1.2,4.7c1.9,3.2,3.8,6.4,5.9,9.5c0.7,1,1.8,1.6,2.9,1.6    c0.7,0,1.3-0.2,1.9-0.6c1.6-1,2.1-3.2,1-4.8C1250.6,545.6,1248.7,542.5,1246.9,539.3z"/>
		<path class="st0" d="M1269.3,521.4c-3.5-1.3-6.8-2.6-10.1-4c-1.8-0.7-3.8,0.1-4.5,1.8c-0.7,1.8,0.1,3.8,1.8,4.5    c3.4,1.4,6.9,2.8,10.5,4.1c0.4,0.1,0.8,0.2,1.2,0.2c1.4,0,2.8-0.9,3.3-2.3C1272,524,1271.1,522,1269.3,521.4z"/>
		<path class="st0" d="M1311.5,534l-10.6-3.1c-1.9-0.6-3.8,0.5-4.3,2.4c-0.5,1.8,0.5,3.7,2.4,4.3l10.6,3.1c0.3,0.1,0.6,0.1,0.9,0.1    c1.5,0,2.9-0.9,3.3-2.5C1314.4,536.4,1313.4,534.5,1311.5,534z"/>
		<path class="st0" d="M1290.3,527.8l-10.6-3.1c-1.8-0.5-3.7,0.5-4.3,2.3c-0.6,1.8,0.5,3.8,2.3,4.3l10.7,3.1c0.3,0.1,0.6,0.1,1,0.1    c1.5,0,2.9-1,3.3-2.5C1293.1,530.3,1292.1,528.3,1290.3,527.8z"/>
		<path class="st0" d="M1300.8,603.3c-1,1.6-0.4,3.8,1.2,4.7c3.3,1.9,6.7,3.7,10.2,5.2c0.4,0.2,0.9,0.3,1.4,0.3c1.3,0,2.6-0.8,3.2-2    c0.8-1.7,0-3.8-1.7-4.6c-3.3-1.5-6.4-3.1-9.5-4.9C1303.8,601.1,1301.7,601.7,1300.8,603.3z"/>
		<path class="st0" d="M1287.9,589.7c-1.5-1.2-3.7-1-4.9,0.4c-1.2,1.5-1,3.7,0.4,4.9c2.9,2.4,5.9,4.8,9,6.9c0.6,0.4,1.3,0.7,2,0.7    c1.1,0,2.2-0.5,2.8-1.5c1.1-1.6,0.7-3.7-0.8-4.8C1293.5,594.2,1290.7,592,1287.9,589.7z"/>
		<path class="st0" d="M1342,618.7c-0.2,1.9,1.1,3.6,3,3.8c3.7,0.4,7.5,0.7,11.4,0.8c0,0,0,0,0,0c1.9,0,3.4-1.5,3.4-3.4    c0-1.9-1.5-3.5-3.4-3.5c-3.7-0.1-7.2-0.3-10.7-0.7C1343.9,615.5,1342.2,616.8,1342,618.7z"/>
		<path class="st0" d="M1354.2,546.4c-2.3-0.7-4.8-1.5-7.3-2.2l-3.4-1c-1.9-0.5-3.8,0.5-4.3,2.4c-0.5,1.9,0.5,3.8,2.3,4.3l3.3,0.9    c2.5,0.7,4.9,1.4,7.2,2.2c0.3,0.1,0.7,0.1,1,0.1c1.5,0,2.8-1,3.3-2.4C1357,548.9,1356,546.9,1354.2,546.4z"/>
		<path class="st0" d="M1270.4,708c0.5,0.3,1.1,0.4,1.7,0.4c1.2,0,2.4-0.6,3-1.8c0.9-1.7,0.4-3.8-1.3-4.7c-3.1-1.7-6.2-3.6-9.3-5.7    c-1.6-1.1-3.7-0.6-4.8,1c-0.1,0.2,0,0.5-0.1,0.7c0.3,1,0.7,2,1,3c0.1,0.4,0.3,0.8,0.4,1.2C1264.1,704.2,1267.3,706.2,1270.4,708z"/>
		<path class="st0" d="M1400,591.7c0.1-0.9,0.1-1.9,0.1-2.9c0-3.1-0.4-6.2-1.1-9.2c-0.5-1.8-2.4-3-4.2-2.5c-1.9,0.4-3,2.3-2.5,4.2    c0.6,2.5,0.9,5,0.9,7.5c0,0.8-0.1,1.6-0.1,2.4c-0.2,1.9,1.3,3.6,3.2,3.7c0.1,0,0.2,0,0.3,0C1398.3,594.9,1399.8,593.5,1400,591.7z    "/>
		<path class="st0" d="M1390.6,600.7c-1.4,3.1-3.2,5.9-5.4,8.2c-1.3,1.4-1.3,3.6,0.1,4.9c0.7,0.6,1.5,1,2.4,1c0.9,0,1.8-0.4,2.5-1.1    c2.8-2.9,5.1-6.3,6.8-10.1c0.8-1.8,0-3.8-1.8-4.6C1393.4,598.1,1391.3,598.9,1390.6,600.7z"/>
		<path class="st0" d="M1332.8,540.1l-10.6-3.1c-1.9-0.5-3.8,0.5-4.3,2.4c-0.5,1.8,0.5,3.8,2.4,4.3l10.6,3.1c0.3,0.1,0.6,0.1,1,0.1    c1.5,0,2.9-1,3.3-2.5C1335.7,542.6,1334.7,540.6,1332.8,540.1z"/>
		<path class="st0" d="M1320.6,613.1c-0.6,1.8,0.4,3.8,2.2,4.4c3.5,1.2,7.2,2.3,11,3.1c0.3,0.1,0.5,0.1,0.8,0.1c1.6,0,3-1.1,3.4-2.7    c0.4-1.9-0.8-3.7-2.6-4.1c-3.5-0.8-6.9-1.8-10.3-2.9C1323.2,610.3,1321.2,611.3,1320.6,613.1z"/>
		<path class="st0" d="M1230.7,501.9c-1.5-1-3-2.1-4.4-3.2c-1.3-0.9-2.9-0.9-4.2,0c-1.2,0.9-1.7,2.6-1.1,4.1    c1.4,3.4,2.9,6.8,4.4,10.2c0.6,1.3,1.8,2,3.2,2c0.5,0,0.9-0.1,1.4-0.3c1.7-0.8,2.5-2.8,1.7-4.6c-0.4-0.9-0.8-1.7-1.2-2.5    c0.4-0.2,0.7-0.5,1-0.9C1232.7,505.1,1232.3,502.9,1230.7,501.9z"/>
		<path class="st0" d="M1231.8,518.5c-1.7,0.8-2.4,2.9-1.5,4.6c1.6,3.3,3.4,6.7,5.1,10c0.6,1.1,1.8,1.8,3,1.8c0.6,0,1.1-0.1,1.7-0.4    c1.6-0.9,2.3-3,1.4-4.7c-1.7-3.2-3.4-6.5-5-9.7C1235.6,518.3,1233.6,517.6,1231.8,518.5z"/>
		<path class="st0" d="M754.2,604.6c-1.9,0-3.5,1.6-3.5,3.5v2.1c2.3-0.1,4.6-0.2,6.9-0.3v-1.8C757.6,606.2,756.1,604.6,754.2,604.6z    "/>
		<path class="st0" d="M682.8,610.7c-1.7,0-2.8,1.2-3.2,2.8c5.7-0.4,11.3-0.7,17-0.9c-0.6-1-1.5-1.8-2.8-1.8H682.8z"/>
		<path class="st0" d="M349.3,446c1.8-0.5,3-2.4,2.5-4.2l-2.7-10.7c-0.4-1.6-2.1-2.6-3.4-2.6l0.6-1.9c0.6-1.8-0.5-3.7-2.3-4.3    c-1.9-0.5-3.8,0.5-4.3,2.3l-3.2,10.6c-0.6,1.8,0.5,3.8,2.3,4.3c1.9,0.6,3.7-0.5,4.3-2.3l0.3-0.8l1.8,7.1c0.4,1.6,1.8,2.6,3.3,2.6    C348.7,446.2,349,446.1,349.3,446z"/>
		<path class="st0" d="M1391.9,565.2c-1.5-1.9-3.5-3.7-6.3-5.6c-1.6-1.1-3.7-0.6-4.8,0.9c-1.1,1.6-0.7,3.7,0.9,4.8    c2.1,1.4,3.7,2.8,5.2,4.7c0.6,0.6,1.1,1.4,1.6,2.1c0.7,1,1.8,1.6,2.9,1.6c0.6,0,1.3-0.2,1.9-0.6c1.6-1,2.1-3.2,1-4.8    C1393.7,567.4,1393,566.5,1391.9,565.2z"/>
		<path class="st0" d="M339.2,482.2h-11c-1.9,0-3.5,1.6-3.5,3.5c0,1.9,1.5,3.4,3.5,3.4h11c1.9,0,3.5-1.5,3.5-3.4    C342.7,483.8,341.1,482.2,339.2,482.2z"/>
		<path class="st0" d="M359.7,474.1c-0.5-1.9-2.3-3-4.2-2.5c-1.9,0.5-3,2.3-2.5,4.2l1.6,6.4h-4.3c-1.9,0-3.4,1.6-3.4,3.5    c0,1.9,1.5,3.4,3.4,3.4h8.7c1.1,0,2.1-0.5,2.7-1.3c0.7-0.8,0.9-1.9,0.6-3L359.7,474.1z"/>
		<path class="st0" d="M986.4,610.7h-11.1c-1.9,0-3.3,1.5-3.4,3.3c5.8,0.4,11.6,0.8,17.5,1.3c0.2-0.4,0.4-0.7,0.4-1.1    C989.8,612.3,988.3,610.7,986.4,610.7z"/>
		<path class="st0" d="M347.7,454.3l2.7,10.7c0.4,1.6,1.8,2.6,3.4,2.6c0.3,0,0.5-0.1,0.8-0.1c1.9-0.5,3-2.4,2.5-4.2l-2.7-10.7    c-0.5-1.8-2.3-3-4.2-2.5C348.4,450.6,347.3,452.5,347.7,454.3z"/>
		<path class="st0" d="M326.7,482c1.5,0,2.9-1,3.3-2.4l3.2-10.6c0.6-1.8-0.4-3.8-2.3-4.3c-1.9-0.5-3.8,0.5-4.3,2.3l-3.3,10.6    c-0.6,1.8,0.5,3.7,2.3,4.3C326,481.9,326.4,482,326.7,482z"/>
		<path class="st0" d="M1012,614.2c0-1.9-1.6-3.5-3.5-3.5h-11c-1.9,0-3.5,1.6-3.5,3.5c0,0.6,0.4,1.1,0.6,1.6    c5.1,0.4,10.3,0.8,15.4,1.3C1011.1,616.4,1012,615.5,1012,614.2z"/>
		<path class="st0" d="M1181.4,622.5c-1.9,0-3.5,1.5-3.5,3.5v11.1c0,0.1,0.1,0.2,0.1,0.3c2.1,0.3,4.2,0.6,6.3,0.9    c0.2-0.4,0.5-0.8,0.5-1.2V626C1184.9,624.1,1183.3,622.5,1181.4,622.5z"/>
		<path class="st0" d="M332.2,460.7c0.3,0.1,0.7,0.2,1,0.2c1.5,0,2.8-0.9,3.3-2.5l3.2-10.6c0.6-1.8-0.5-3.8-2.3-4.3    c-1.9-0.5-3.8,0.5-4.3,2.3l-3.2,10.6C329.4,458.2,330.4,460.1,332.2,460.7z"/>
		<path class="st0" d="M1312.1,725c0.3,0.1,0.6,0.1,0.9,0.1c1.5,0,2.9-1,3.4-2.6c0.5-1.9-0.6-3.8-2.5-4.2c-3.3-0.9-6.8-1.9-10.4-3.1    c-1.9-0.6-3.8,0.4-4.4,2.2c-0.6,1.8,0.4,3.8,2.2,4.4C1305,723.1,1308.6,724.1,1312.1,725z"/>
		<path class="st0" d="M1356.8,730.4c1.9,0,3.5-1.5,3.5-3.4c0-1.9-1.6-3.4-3.5-3.4c-2.8,0-6.4,0-10.9-0.2c-2,0-3.5,1.4-3.6,3.3    c-0.1,1.9,1.4,3.6,3.3,3.7C1350.2,730.4,1354,730.4,1356.8,730.4z"/>
		<path class="st0" d="M1386.7,728.3c3.8-0.5,7.5-1.2,11.1-1.9c1.9-0.4,3.1-2.2,2.7-4.1c-0.4-1.9-2.3-3.1-4.1-2.7    c-3.5,0.7-7.1,1.4-10.7,1.9c-1.9,0.3-3.2,2-2.9,3.9c0.2,1.7,1.7,3,3.4,3C1386.3,728.4,1386.5,728.3,1386.7,728.3z"/>
		<path class="st0" d="M1364.3,730.3c3.8-0.1,7.5-0.4,11.2-0.7c1.9-0.1,3.3-1.8,3.2-3.7c-0.2-1.9-1.8-3.4-3.7-3.1    c-3.6,0.3-7.2,0.5-10.9,0.6c-1.9,0.1-3.4,1.7-3.3,3.6c0.1,1.8,1.6,3.3,3.5,3.3C1364.2,730.3,1364.2,730.3,1364.3,730.3z"/>
		<path class="st0" d="M1408.8,723.8c3.7-1,7.3-2.1,10.8-3.4c1.8-0.6,2.8-2.6,2.1-4.4c-0.6-1.8-2.6-2.7-4.4-2.1    c-3.4,1.2-6.8,2.3-10.4,3.2c-1.8,0.5-2.9,2.4-2.4,4.3c0.4,1.5,1.8,2.5,3.3,2.5C1408.2,723.9,1408.5,723.9,1408.8,723.8z"/>
		<path class="st0" d="M1428.8,716.6c0.5,0,0.9-0.1,1.4-0.3c3.5-1.5,6.9-3.2,10.2-4.9c1.7-0.9,2.3-3,1.4-4.7c-0.9-1.7-3-2.4-4.7-1.5    c-3.1,1.7-6.4,3.2-9.7,4.7c-1.8,0.8-2.6,2.8-1.8,4.6C1426.2,715.8,1427.4,716.6,1428.8,716.6z"/>
		<path class="st0" d="M1334.3,729.2c0.2,0,0.3,0,0.4,0c1.7,0,3.2-1.3,3.4-3.1c0.2-1.9-1.2-3.6-3-3.8c-3.4-0.4-6.9-0.9-10.7-1.6    c-1.8-0.3-3.7,0.9-4.1,2.8c-0.4,1.9,0.9,3.7,2.8,4C1327,728.3,1330.8,728.9,1334.3,729.2z"/>
		<path class="st0" d="M1292,718.1c1.3,0,2.6-0.8,3.2-2.1c0.7-1.7-0.1-3.8-1.9-4.5c-3.2-1.3-6.5-2.8-9.9-4.5    c-1.7-0.8-3.8-0.1-4.7,1.6c-0.8,1.7-0.1,3.8,1.6,4.6c3.5,1.7,6.9,3.2,10.3,4.6C1291.1,718,1291.5,718.1,1292,718.1z"/>
		<path class="st0" d="M1406,361.6c-2.5-2.9-5-5.7-7.6-8.4c-1.3-1.3-3.5-1.4-4.9,0c-1.4,1.3-1.4,3.5,0,4.9c2.5,2.6,5,5.2,7.3,8    c0.7,0.8,1.7,1.2,2.6,1.2c0.8,0,1.6-0.3,2.2-0.8C1407.1,365.2,1407.2,363,1406,361.6z"/>
		<path class="st0" d="M660.6,610.7c-1.9,0-3.4,1.6-3.4,3.5c0,0.3,0.2,0.4,0.3,0.7c5.9-0.4,11.7-0.8,17.5-1.1    c-0.2-1.7-1.5-3.1-3.3-3.1H660.6z"/>
		<path class="st0" d="M1512.5,575.9c-1.9-0.1-3.6,1.3-3.7,3.2c-0.3,3.8-0.7,7.3-1.1,10.8c-0.2,1.9,1.1,3.6,3,3.9    c0.2,0,0.3,0.1,0.4,0.1c1.7,0,3.2-1.3,3.5-3.1c0.4-3.6,0.8-7.3,1.1-11.2C1515.9,577.8,1514.4,576.1,1512.5,575.9z"/>
		<path class="st0" d="M1459.5,699.1c1.5-1.2,1.8-3.3,0.6-4.9c-1.2-1.5-3.4-1.8-4.9-0.6c-2.8,2.2-5.7,4.3-8.8,6.2    c-1.6,1-2.1,3.2-1.1,4.8c0.7,1,1.8,1.6,2.9,1.6c0.7,0,1.3-0.2,1.9-0.5C1453.4,703.6,1456.5,701.4,1459.5,699.1z"/>
		<path class="st0" d="M1510.1,598c-2-0.4-3.7,0.9-4,2.8c-0.7,3.7-1.4,7.2-2.2,10.7c-0.5,1.9,0.7,3.7,2.6,4.1    c0.2,0.1,0.5,0.1,0.8,0.1c1.5,0,3-1.1,3.4-2.7c0.9-3.5,1.6-7.2,2.3-11C1513.2,600.1,1512,598.3,1510.1,598z"/>
		<path class="st0" d="M1512.9,553.8C1512.9,553.8,1512.9,553.8,1512.9,553.8c-1.9,0-3.5,1.6-3.5,3.5l0,4c0,2.3,0,4.7-0.1,6.9    c-0.1,1.9,1.4,3.5,3.3,3.6c0,0,0.1,0,0.1,0c1.9,0,3.4-1.5,3.5-3.4c0-2.3,0.1-4.7,0.1-7.1l-0.1-4.1    C1516.4,555.3,1514.8,553.8,1512.9,553.8z"/>
		<path class="st0" d="M1505.3,619.6c-1.8-0.6-3.8,0.5-4.3,2.3c-1.1,3.6-2.3,7-3.5,10.3c-0.7,1.8,0.3,3.8,2.1,4.5    c0.4,0.1,0.8,0.2,1.2,0.2c1.4,0,2.7-0.8,3.2-2.3c1.3-3.4,2.5-7,3.6-10.7C1508.2,622,1507.2,620.1,1505.3,619.6z"/>
		<path class="st0" d="M1493.5,642.3c-1.5,3.5-3.1,6.7-4.7,9.8c-0.9,1.7-0.2,3.8,1.5,4.7c0.5,0.3,1.1,0.4,1.6,0.4    c1.3,0,2.4-0.7,3.1-1.8c1.7-3.2,3.3-6.6,4.9-10.2c0.8-1.7,0-3.8-1.8-4.6C1496.4,639.7,1494.3,640.5,1493.5,642.3z"/>
		<path class="st0" d="M1470.8,678.8c-1.2,1.4-2.3,2.5-3.3,3.6c-1.4,1.4-2.7,2.8-4.1,4.1c-1.4,1.3-1.5,3.5-0.2,4.9    c0.7,0.7,1.6,1,2.5,1c0.9,0,1.7-0.3,2.4-0.9c1.5-1.4,3-2.9,4.4-4.4c1.1-1.1,2.3-2.4,3.5-3.9c1.3-1.5,1.1-3.6-0.3-4.9    C1474.2,677.3,1472,677.4,1470.8,678.8z"/>
		<path class="st0" d="M1480.2,675.9c1.1,0,2.1-0.5,2.8-1.4c2-2.8,4.2-5.9,6.3-9.4c1-1.6,0.5-3.8-1.2-4.8c-1.6-1-3.7-0.5-4.8,1.1    c-2,3.3-4,6.3-6,8.9c-1.1,1.6-0.8,3.7,0.8,4.8C1478.8,675.7,1479.5,675.9,1480.2,675.9z"/>
		<path class="st0" d="M1313.6,386.1c0.3,0.1,0.7,0.1,1,0.1c1.5,0,2.9-1,3.3-2.5c0.6-1.8-0.5-3.8-2.3-4.3c-3.8-1.2-7.1-2.4-9.9-3.7    c-1.7-0.8-3.8-0.1-4.6,1.6c-0.8,1.7-0.1,3.8,1.6,4.6C1305.9,383.5,1309.4,384.8,1313.6,386.1z"/>
		<path class="st0" d="M1287.5,338.3c-1.8-0.3-3.6,1.1-3.9,3c-0.3,2.4-0.3,4.8-0.4,7.3c0,1.5,0.1,3,0.1,4.4c0.1,1.8,1.7,3.3,3.5,3.3    c0.1,0,0.2,0,0.2,0c1.9-0.1,3.3-1.8,3.2-3.7c-0.1-1.3-0.1-2.6-0.1-4.3c0-1.9,0-4,0.3-6.2C1290.8,340.3,1289.5,338.5,1287.5,338.3z    "/>
		<path class="st0" d="M1427.9,404c0.5,0,1.1-0.1,1.6-0.4c1.7-0.9,2.4-3,1.5-4.6c-1.7-3.2-3.6-6.5-5.5-9.8c-1-1.6-3.1-2.2-4.7-1.2    c-1.7,1-2.2,3.1-1.3,4.7c1.9,3.2,3.7,6.4,5.3,9.6C1425.4,403.4,1426.6,404,1427.9,404z"/>
		<path class="st0" d="M1303.7,324.5c-0.7-1.8-2.6-2.7-4.5-2c-4.5,1.7-8.1,4-10.6,7c-1.3,1.5-1.1,3.6,0.4,4.9    c0.7,0.6,1.4,0.8,2.3,0.8c1,0,1.9-0.4,2.6-1.2c1.8-2.1,4.4-3.7,7.7-5C1303.4,328.2,1304.3,326.2,1303.7,324.5z"/>
		<path class="st0" d="M1295.1,376.2c0.9,0,1.8-0.4,2.5-1.1c1.3-1.4,1.3-3.6-0.1-4.9c-2.3-2.2-4-4.8-5.1-8c-0.7-1.8-2.6-2.7-4.5-2    c-1.8,0.7-2.7,2.7-2,4.4c1.5,4.1,3.7,7.5,6.8,10.5C1293.3,375.9,1294.2,376.2,1295.1,376.2z"/>
		<path class="st0" d="M1434,419.7c0.5,0.3,1.1,0.4,1.6,0.4c0.8,0,1.7-0.3,2.4-0.9c1.1-1,1.4-2.6,0.8-3.9c-0.9-2-1.9-4.1-2.9-6.2    c-0.8-1.8-2.9-2.5-4.6-1.6c-1.7,0.8-2.4,2.9-1.7,4.6c-0.4,0.3-0.7,0.7-1,1.2c-0.8,1.7-0.1,3.8,1.5,4.7    C1431.5,418.4,1432.8,419.1,1434,419.7z"/>
		<path class="st0" d="M1416.6,385c0.7,0,1.3-0.2,1.9-0.6c1.6-1.1,2-3.2,1-4.8c-2.1-3.1-4.2-6.2-6.5-9.2c-1.1-1.6-3.3-1.8-4.8-0.7    c-1.5,1.1-1.8,3.3-0.7,4.8c2.2,2.9,4.3,5.9,6.3,8.9C1414.4,384.4,1415.5,385,1416.6,385z"/>
		<path class="st0" d="M1364.8,549.9c-1.8-0.6-3.7,0.3-4.4,2.1c-0.7,1.8,0.3,3.8,2.1,4.4c3.7,1.3,7.1,2.7,10,4    c0.5,0.2,0.9,0.3,1.4,0.3c1.3,0,2.6-0.8,3.1-2c0.8-1.7,0-3.8-1.7-4.6C1372.2,552.7,1368.7,551.3,1364.8,549.9z"/>
		<path class="st0" d="M1410.2,409.3c3.5,1.2,6.9,2.5,10.1,3.9c0.4,0.2,0.9,0.3,1.3,0.3c1.4,0,2.6-0.8,3.2-2.1    c0.7-1.8-0.1-3.8-1.9-4.5c-3.4-1.5-6.9-2.8-10.5-4.1c-1.8-0.6-3.8,0.3-4.4,2.1C1407.5,406.8,1408.4,408.7,1410.2,409.3z"/>
		<path class="st0" d="M1377.1,613.7c-2.9,1-6.3,1.7-10,2.2c-1.9,0.2-3.3,1.9-3.1,3.8c0.2,1.8,1.7,3.1,3.5,3.1c0.1,0,0.2,0,0.4,0    c4.3-0.5,8.1-1.4,11.5-2.5c1.8-0.6,2.8-2.6,2.1-4.4C1380.9,614,1379,613,1377.1,613.7z"/>
		<path class="st0" d="M1367.8,398.3l10.8,2.4c0.2,0.1,0.5,0.1,0.8,0.1c1.6,0,3-1.1,3.4-2.7c0.4-1.9-0.8-3.7-2.6-4.1l-10.8-2.4    c-1.8-0.4-3.7,0.8-4.1,2.6C1364.8,396,1365.9,397.8,1367.8,398.3z"/>
		<path class="st0" d="M1346.3,393.4l10.7,2.4c0.2,0.1,0.5,0.1,0.8,0.1c1.5,0,3-1.1,3.4-2.7c0.4-1.8-0.8-3.7-2.6-4.1l-10.9-2.4    c-1.9-0.4-3.7,0.8-4.1,2.7C1343.2,391.2,1344.4,393,1346.3,393.4z"/>
		<path class="st0" d="M1389.3,403.1c3.6,0.9,7.1,1.8,10.5,2.9c0.4,0.1,0.7,0.1,1,0.1c1.5,0,2.9-0.9,3.3-2.4    c0.6-1.8-0.5-3.8-2.3-4.3c-3.5-1-7.1-2-10.9-3c-1.9-0.4-3.7,0.7-4.2,2.6C1386.4,400.8,1387.5,402.7,1389.3,403.1z"/>
		<path class="st0" d="M1387.8,351.5c1,0,1.9-0.4,2.6-1.2c1.2-1.5,1.1-3.6-0.3-4.9c-2.9-2.5-5.9-4.8-9-7c-1.6-1.1-3.7-0.8-4.8,0.8    c-1.1,1.5-0.8,3.7,0.8,4.9c2.9,2,5.8,4.3,8.5,6.6C1386.2,351.2,1387,351.5,1387.8,351.5z"/>
		<path class="st0" d="M1369.8,338.7c1.2,0,2.4-0.6,3-1.7c0.9-1.6,0.3-3.8-1.3-4.7c-3.4-1.9-6.8-3.6-10.2-5.1    c-1.7-0.8-3.8,0-4.6,1.8c-0.7,1.7,0.1,3.8,1.8,4.5c3.2,1.4,6.4,3,9.5,4.8C1368.6,338.6,1369.2,338.7,1369.8,338.7z"/>
		<path class="st0" d="M1349.5,330c1.5,0,2.9-1,3.3-2.5c0.6-1.8-0.5-3.8-2.3-4.3c-3.7-1.1-7.4-2-11.1-2.6c-2-0.4-3.7,1-4,2.8    c-0.3,1.9,0.9,3.7,2.8,4c3.5,0.6,7,1.4,10.3,2.4C1348.8,329.9,1349.2,330,1349.5,330z"/>
		<path class="st0" d="M1327.5,326.2c1.9,0.4,3.6-1.4,3.6-3.3c0.1-1.9-1.4-3.5-3.3-3.6c-5.8-0.3-12-0.1-17.1,0.4    c-1.9,0.3-3.2,2-3,3.9c0.2,1.7,1.7,3.1,3.5,3.1c0.1,0,0.3,0,0.4,0C1316.3,326.1,1322.1,326,1327.5,326.2z"/>
		<path class="st0" d="M1324.5,388.9c3.4,0.8,7.1,1.6,10.9,2.4c0.2,0.1,0.5,0.1,0.7,0.1c1.6,0,3.1-1.1,3.4-2.8    c0.4-1.9-0.8-3.7-2.7-4.1c-3.8-0.8-7.4-1.5-10.8-2.3c-1.8-0.4-3.7,0.7-4.1,2.6C1321.5,386.7,1322.6,388.5,1324.5,388.9z"/>
		<path class="st0" d="M482.2,456.5c0.3,0,0.6,0,0.8-0.1c1.8-0.5,3-2.3,2.5-4.2l-2.6-10.7c-0.5-1.9-2.4-3-4.2-2.6    c-1.9,0.5-3,2.3-2.6,4.2l2.6,10.8C479.3,455.5,480.7,456.5,482.2,456.5z"/>
		<path class="st0" d="M195.4,566.7c0.3,0.1,0.7,0.2,1,0.2c1.5,0,2.8-1,3.3-2.5l3.3-10.6c0.5-1.8-0.5-3.8-2.3-4.3    c-1.9-0.5-3.8,0.5-4.3,2.3l-3.3,10.6C192.6,564.2,193.6,566.2,195.4,566.7z"/>
		<path class="st0" d="M201.9,545.6c0.4,0.1,0.7,0.1,1,0.1c1.5,0,2.9-1,3.3-2.4l3.2-10.6c0.6-1.8-0.5-3.8-2.3-4.3    c-1.9-0.5-3.8,0.5-4.3,2.3l-3.2,10.6C199.1,543.1,200.1,545,201.9,545.6z"/>
		<path class="st0" d="M208.4,524.4c0.3,0.1,0.7,0.2,1,0.2c1.5,0,2.9-0.9,3.3-2.4l3.3-10.6c0.6-1.8-0.4-3.8-2.3-4.3    c-1.9-0.5-3.8,0.5-4.3,2.3l-3.3,10.6C205.6,521.9,206.6,523.8,208.4,524.4z"/>
		<path class="st0" d="M182.4,609.1c0.4,0.1,0.7,0.1,1.1,0.1c1.5,0,2.8-0.9,3.3-2.4l3.2-10.6c0.6-1.8-0.4-3.8-2.3-4.3    c-1.9-0.5-3.8,0.5-4.3,2.3l-3.3,10.5C179.6,606.6,180.6,608.5,182.4,609.1z"/>
		<path class="st0" d="M188.9,587.9c0.4,0.1,0.7,0.1,1,0.1c1.5,0,2.8-1,3.3-2.4l3.2-10.6c0.6-1.8-0.5-3.8-2.3-4.3    c-1.9-0.5-3.8,0.5-4.3,2.3l-3.2,10.6C186.1,585.4,187.1,587.4,188.9,587.9z"/>
		<path class="st0" d="M210.9,264.4c1.9,0,3.5-1.6,3.5-3.5v-11.1c0-1.9-1.5-3.5-3.5-3.5c-1.9,0-3.4,1.6-3.4,3.5V261    C207.5,262.9,209,264.4,210.9,264.4z"/>
		<path class="st0" d="M210.9,242.3c1.5,0,2.8-1,3.2-2.3h5.6c1.9,0,3.4-1.6,3.4-3.5c0-1.9-1.5-3.5-3.4-3.5h-8.9    c-1.9,0-3.4,1.6-3.4,3.5v2.2C207.5,240.7,209,242.3,210.9,242.3z"/>
		<path class="st0" d="M267.6,329l-6.8-8.8c-1.2-1.5-3.3-1.8-4.8-0.6c-1.5,1.2-1.8,3.3-0.6,4.9l6.8,8.7c0.7,0.9,1.7,1.3,2.8,1.3    c0.7,0,1.5-0.2,2.1-0.7C268.5,332.7,268.8,330.6,267.6,329z"/>
		<path class="st0" d="M247.3,302.7c-1.2-1.5-3.4-1.8-4.9-0.6c-1.5,1.2-1.8,3.4-0.6,4.9l6.8,8.8c0.7,0.9,1.7,1.3,2.7,1.3    c0.8,0,1.5-0.2,2.1-0.7c1.5-1.2,1.8-3.3,0.6-4.9L247.3,302.7z"/>
		<path class="st0" d="M172.7,628.3c1.1,0,2.1-0.5,2.8-1.4l6.7-8.9c1.1-1.5,0.8-3.7-0.7-4.9c-1.5-1.1-3.7-0.8-4.8,0.7l-6.7,8.9    c-1.1,1.5-0.8,3.7,0.7,4.8C171.3,628.1,172,628.3,172.7,628.3z"/>
		<path class="st0" d="M264.9,352.8l3.2-10.6c0.6-1.8-0.5-3.8-2.3-4.3c-1.8-0.6-3.8,0.5-4.3,2.3l-3.2,10.6c-0.6,1.8,0.4,3.8,2.3,4.3    c0.3,0.1,0.7,0.2,1,0.2C263,355.2,264.4,354.2,264.9,352.8z"/>
		<path class="st0" d="M215.3,267.1c-1.5,1.2-1.8,3.3-0.7,4.9l6.8,8.8c0.7,0.9,1.7,1.3,2.7,1.3c0.7,0,1.5-0.2,2.1-0.7    c1.5-1.2,1.8-3.4,0.6-4.9l-6.8-8.8C219,266.2,216.9,265.9,215.3,267.1z"/>
		<path class="st0" d="M233.7,285.2c-1.2-1.5-3.3-1.8-4.9-0.6c-1.5,1.1-1.8,3.3-0.6,4.9l6.8,8.8c0.7,0.9,1.7,1.4,2.7,1.4    c0.8,0,1.5-0.3,2.1-0.8c1.5-1.1,1.8-3.3,0.6-4.8L233.7,285.2z"/>
		<path class="st0" d="M247.1,712.7c-1.9,0-3.5,1.6-3.5,3.4c0,1.9,1.5,3.5,3.5,3.5h11.1c1.9,0,3.4-1.6,3.4-3.5    c0-1.9-1.5-3.4-3.4-3.4H247.1z"/>
		<path class="st0" d="M224.9,712.7c-1.9,0-3.4,1.6-3.4,3.4c0,1.9,1.5,3.5,3.4,3.5H236c1.9,0,3.5-1.6,3.5-3.5c0-1.9-1.6-3.4-3.5-3.4    H224.9z"/>
		<path class="st0" d="M202.8,712.7c-1.9,0-3.4,1.6-3.4,3.4c0,1.9,1.5,3.5,3.4,3.5h11.1c1.9,0,3.4-1.6,3.4-3.5    c0-1.9-1.5-3.4-3.4-3.4H202.8z"/>
		<path class="st0" d="M258.3,373.9l3.3-10.6c0.6-1.8-0.4-3.8-2.3-4.3c-1.9-0.5-3.8,0.5-4.3,2.3l-3.3,10.6c-0.5,1.8,0.5,3.8,2.3,4.3    c0.4,0.1,0.7,0.2,1,0.2C256.5,376.4,257.9,375.4,258.3,373.9z"/>
		<path class="st0" d="M291.4,712.7c-1.9,0-3.4,1.6-3.4,3.4c0,1.9,1.5,3.5,3.4,3.5h11.1c1.9,0,3.5-1.6,3.5-3.5    c0-1.9-1.5-3.4-3.5-3.4H291.4z"/>
		<path class="st0" d="M269.2,712.7c-1.9,0-3.4,1.6-3.4,3.4c0,1.9,1.5,3.5,3.4,3.5h11.1c1.9,0,3.5-1.6,3.5-3.5    c0-1.9-1.6-3.4-3.5-3.4H269.2z"/>
		<path class="st0" d="M159.4,646c1.1,0,2.1-0.5,2.7-1.4l6.7-8.8c1.1-1.5,0.8-3.7-0.7-4.8c-1.5-1.1-3.7-0.8-4.9,0.7l-6.6,8.8    c-1.1,1.5-0.9,3.7,0.7,4.9C158,645.7,158.7,646,159.4,646z"/>
		<path class="st0" d="M180.6,712.7c-1.9,0-3.5,1.6-3.5,3.4c0,1.9,1.5,3.5,3.5,3.5h11.1c1.9,0,3.4-1.6,3.4-3.5    c0-1.9-1.5-3.4-3.4-3.4H180.6z"/>
		<path class="st0" d="M126,712.8v-5c0-1.9-1.5-3.5-3.4-3.5c-1.9,0-3.5,1.6-3.5,3.5v8.4c0,1.9,1.5,3.5,3.5,3.5h2.7    c1.9,0,3.4-1.6,3.4-3.5C128.7,714.5,127.6,713.1,126,712.8z"/>
		<path class="st0" d="M146.1,663.6c1,0,2.1-0.5,2.7-1.4l6.7-8.9c1.2-1.5,0.8-3.7-0.7-4.8c-1.5-1.1-3.7-0.9-4.8,0.7l-6.7,8.8    c-1.2,1.5-0.8,3.7,0.7,4.8C144.6,663.4,145.3,663.6,146.1,663.6z"/>
		<path class="st0" d="M123.3,684.6l-3.5,4.7c-0.5,0.6-0.7,1.3-0.7,2.1v5.3c0,1.9,1.5,3.4,3.5,3.4c1.9,0,3.4-1.5,3.4-3.4v-4.1    l2.8-3.7c1.2-1.5,0.8-3.7-0.7-4.8C126.7,682.8,124.5,683.1,123.3,684.6z"/>
		<path class="st0" d="M142.2,671.1c1.1-1.5,0.9-3.7-0.7-4.8c-1.5-1.1-3.7-0.9-4.8,0.7l-6.7,8.9c-1.2,1.5-0.9,3.7,0.7,4.8    c0.6,0.5,1.4,0.7,2.1,0.7c1.1,0,2.1-0.5,2.8-1.4L142.2,671.1z"/>
		<path class="st0" d="M147.4,712.7h-11.1c-1.9,0-3.4,1.6-3.4,3.4c0,1.9,1.5,3.5,3.4,3.5h11.1c1.9,0,3.4-1.6,3.4-3.5    C150.9,714.2,149.3,712.7,147.4,712.7z"/>
		<path class="st0" d="M173,716.1c0-1.9-1.5-3.4-3.5-3.4h-11.1c-1.9,0-3.5,1.6-3.5,3.4c0,1.9,1.5,3.5,3.5,3.5h11.1    C171.5,719.6,173,718,173,716.1z"/>
		<path class="st0" d="M452.3,240h11.1c1.9,0,3.5-1.6,3.5-3.5c0-1.9-1.5-3.5-3.5-3.5h-11.1c-1.9,0-3.5,1.6-3.5,3.5    C448.9,238.5,450.4,240,452.3,240z"/>
		<path class="st0" d="M474.5,240h11.1c1.9,0,3.5-1.6,3.5-3.5c0-1.9-1.5-3.5-3.5-3.5h-11.1c-1.9,0-3.4,1.6-3.4,3.5    C471,238.5,472.6,240,474.5,240z"/>
		<path class="st0" d="M310.1,716.1c0,1.9,1.5,3.5,3.4,3.5h11.1c1.9,0,3.5-1.6,3.5-3.5c0-1.9-1.5-3.4-3.5-3.4h-11.1    C311.6,712.7,310.1,714.2,310.1,716.1z"/>
		<path class="st0" d="M496.6,240h11.1c1.9,0,3.4-1.6,3.4-3.5c0-1.9-1.5-3.5-3.4-3.5h-11.1c-1.9,0-3.4,1.6-3.4,3.5    C493.2,238.5,494.7,240,496.6,240z"/>
		<path class="st0" d="M251.8,395.1l3.3-10.6c0.6-1.8-0.5-3.8-2.3-4.3c-1.9-0.5-3.8,0.5-4.3,2.3l-3.3,10.6c-0.6,1.8,0.5,3.8,2.3,4.3    c0.3,0.1,0.7,0.1,1,0.1C250,397.5,251.4,396.6,251.8,395.1z"/>
		<path class="st0" d="M507.9,244v11.1c0,1.9,1.6,3.5,3.5,3.5c1.9,0,3.4-1.6,3.4-3.5V244c0-1.9-1.5-3.5-3.4-3.5    C509.5,240.5,507.9,242.1,507.9,244z"/>
		<path class="st0" d="M430.2,240h11c1.9,0,3.4-1.6,3.4-3.5c0-1.9-1.5-3.5-3.4-3.5h-11c-1.9,0-3.4,1.6-3.4,3.5    C426.7,238.5,428.3,240,430.2,240z"/>
		<path class="st0" d="M487.5,478.1c0.3,0,0.5,0,0.8-0.1c1.8-0.5,3-2.4,2.5-4.2l-2.6-10.8c-0.5-1.9-2.4-3.1-4.2-2.5    c-1.8,0.5-3,2.3-2.5,4.2l2.6,10.8C484.5,477,485.9,478.1,487.5,478.1z"/>
		<path class="st0" d="M385.9,240H397c1.9,0,3.5-1.6,3.5-3.5c0-1.9-1.6-3.5-3.5-3.5h-11.1c-1.9,0-3.4,1.6-3.4,3.5    C382.4,238.5,384,240,385.9,240z"/>
		<path class="st0" d="M477,435c0.3,0,0.5,0,0.8-0.1c1.8-0.5,3-2.3,2.6-4.2l-2.6-10.8c-0.5-1.9-2.4-3.1-4.2-2.5    c-1.9,0.5-3,2.3-2.5,4.2l2.6,10.8C474,434,475.4,435,477,435z"/>
		<path class="st0" d="M492.7,499.6c0.3,0,0.5,0,0.8-0.1c1.9-0.4,3-2.3,2.6-4.2l-2.6-10.7c-0.5-1.9-2.3-3.1-4.2-2.6    c-1.8,0.5-3,2.3-2.5,4.2l2.6,10.7C489.7,498.5,491.2,499.6,492.7,499.6z"/>
		<path class="st0" d="M503.2,542.6c0.3,0,0.6,0,0.8-0.1c1.8-0.4,3-2.3,2.5-4.2l-2.6-10.8c-0.4-1.9-2.3-3-4.2-2.5    c-1.9,0.5-3,2.3-2.5,4.2l2.6,10.8C500.2,541.6,501.6,542.6,503.2,542.6z"/>
		<path class="st0" d="M508.4,564.2c0.3,0,0.5,0,0.8-0.1c1.9-0.5,3-2.3,2.6-4.2l-2.6-10.7c-0.4-1.9-2.3-3-4.2-2.5    c-1.8,0.5-3,2.3-2.5,4.2l2.6,10.8C505.5,563.1,506.9,564.2,508.4,564.2z"/>
		<path class="st0" d="M498,521.1c0.3,0,0.5,0,0.8-0.1c1.9-0.4,3-2.3,2.5-4.2l-2.6-10.8c-0.5-1.9-2.3-3-4.2-2.5    c-1.9,0.4-3,2.3-2.6,4.2l2.6,10.7C495,520,496.4,521.1,498,521.1z"/>
		<path class="st0" d="M408,240h11.1c1.9,0,3.5-1.6,3.5-3.5c0-1.9-1.6-3.5-3.5-3.5H408c-1.9,0-3.4,1.6-3.4,3.5    C404.6,238.5,406.1,240,408,240z"/>
		<path class="st0" d="M215.9,488.3l-3.3,10.6c-0.6,1.8,0.5,3.8,2.3,4.3c0.4,0.1,0.7,0.1,1,0.1c1.5,0,2.9-1,3.3-2.4l3.3-10.6    c0.6-1.8-0.5-3.8-2.3-4.3C218.4,485.5,216.5,486.5,215.9,488.3z"/>
		<path class="st0" d="M228,460.9c0.4,0.1,0.7,0.2,1,0.2c1.5,0,2.8-1,3.3-2.5l3.3-10.6c0.6-1.8-0.5-3.8-2.3-4.3    c-1.9-0.5-3.8,0.5-4.3,2.3l-3.2,10.6C225.1,458.4,226.1,460.3,228,460.9z"/>
		<path class="st0" d="M230.9,240h11.1c1.9,0,3.5-1.6,3.5-3.5c0-1.9-1.6-3.5-3.5-3.5h-11.1c-1.9,0-3.5,1.6-3.5,3.5    C227.4,238.5,228.9,240,230.9,240z"/>
		<path class="st0" d="M222.4,467.1l-3.3,10.6c-0.6,1.8,0.4,3.8,2.3,4.3c0.4,0.1,0.7,0.1,1,0.1c1.5,0,2.9-0.9,3.3-2.4l3.2-10.6    c0.6-1.8-0.5-3.8-2.3-4.3C224.9,464.3,223,465.4,222.4,467.1z"/>
		<path class="st0" d="M239.8,422.5c-1.9-0.5-3.8,0.5-4.3,2.3l-3.2,10.6c-0.6,1.8,0.5,3.8,2.3,4.3c0.4,0.1,0.7,0.2,1,0.2    c1.5,0,2.9-0.9,3.3-2.4l3.2-10.6C242.6,425,241.6,423.1,239.8,422.5z"/>
		<path class="st0" d="M245.3,416.3l3.3-10.6c0.6-1.8-0.5-3.8-2.3-4.3c-1.9-0.5-3.8,0.5-4.3,2.3l-3.2,10.6c-0.6,1.8,0.4,3.8,2.3,4.3    c0.3,0.1,0.7,0.2,1,0.2C243.5,418.7,244.8,417.7,245.3,416.3z"/>
		<path class="st0" d="M319.4,240h11.1c1.9,0,3.5-1.6,3.5-3.5c0-1.9-1.5-3.5-3.5-3.5h-11.1c-1.9,0-3.5,1.6-3.5,3.5    C316,238.5,317.5,240,319.4,240z"/>
		<path class="st0" d="M363.7,240h11.1c1.9,0,3.5-1.6,3.5-3.5c0-1.9-1.5-3.5-3.5-3.5h-11.1c-1.9,0-3.5,1.6-3.5,3.5    C360.3,238.5,361.8,240,363.7,240z"/>
		<path class="st0" d="M341.6,240h11.1c1.9,0,3.4-1.6,3.4-3.5c0-1.9-1.5-3.5-3.4-3.5h-11.1c-1.9,0-3.5,1.6-3.5,3.5    C338.2,238.5,339.7,240,341.6,240z"/>
		<path class="st0" d="M275.1,240h11.1c1.9,0,3.5-1.6,3.5-3.5c0-1.9-1.6-3.5-3.5-3.5h-11.1c-1.9,0-3.4,1.6-3.4,3.5    C271.7,238.5,273.2,240,275.1,240z"/>
		<path class="st0" d="M253,240h11.1c1.9,0,3.4-1.6,3.4-3.5c0-1.9-1.5-3.5-3.4-3.5H253c-1.9,0-3.4,1.6-3.4,3.5    C249.5,238.5,251.1,240,253,240z"/>
		<path class="st0" d="M297.3,240h11.1c1.9,0,3.5-1.6,3.5-3.5c0-1.9-1.5-3.5-3.5-3.5h-11.1c-1.9,0-3.4,1.6-3.4,3.5    C293.8,238.5,295.4,240,297.3,240z"/>
		<path class="st0" d="M360.5,712.7c-1.9,0-3.5,1.6-3.5,3.4c0,1.9,1.6,3.5,3.5,3.5h11.1c1.9,0,3.5-1.6,3.5-3.5    c0-1.9-1.6-3.4-3.5-3.4H360.5z"/>
		<path class="st0" d="M331.2,692.9c0,2.9,4.1,4.3,6,2.4c0.5,1.3,1.8,2.2,3.2,2.2c1.9,0,3.5-1.5,3.5-3.5v-1.3l4.4-6    c1.1-1.5,0.8-3.7-0.7-4.8c-1.5-1.1-3.7-0.8-4.9,0.8l-5.1,6.9c0,0,0,0,0,0c-0.1-0.1-0.1-0.1-0.2-0.2l-5.8-7.6    c-1.2-1.5-3.3-1.8-4.9-0.6c-1.5,1.1-1.8,3.3-0.7,4.8l5.1,6.6V692.9z"/>
		<path class="st0" d="M337.1,717.4c0.5,1.3,1.8,2.2,3.2,2.2h9.1c1.9,0,3.5-1.6,3.5-3.5c0-1.9-1.5-3.4-3.5-3.4h-5.6v-7.6    c0-3-4.1-4.3-6-2.4c-0.5-1.3-1.8-2.2-3.2-2.2c-1.9,0-3.4,1.6-3.4,3.5V715C331.1,718,335.3,719.4,337.1,717.4z"/>
		<path class="st0" d="M321.7,596.3c1.9,0,3.4-1.5,3.4-3.4c0-1.9-1.5-3.5-3.4-3.5h-11.1c-1.9,0-3.5,1.6-3.5,3.5    c0,1.9,1.5,3.4,3.5,3.4H321.7z"/>
		<path class="st0" d="M332.8,596.3h11.1c1.9,0,3.5-1.5,3.5-3.4c0-1.9-1.5-3.5-3.5-3.5h-11.1c-1.9,0-3.5,1.6-3.5,3.5    C329.3,594.8,330.8,596.3,332.8,596.3z"/>
		<path class="st0" d="M319.4,677c0.7,0.9,1.7,1.3,2.8,1.3c0.7,0,1.5-0.2,2.1-0.7c1.5-1.1,1.8-3.3,0.7-4.8l-6.7-8.8    c-1.2-1.5-3.4-1.8-4.9-0.7c-1.5,1.2-1.8,3.4-0.7,4.9L319.4,677z"/>
		<path class="st0" d="M293.7,603.4c1.5,0,2.9-0.9,3.3-2.4l1.4-4.6h1.1c1.9,0,3.5-1.5,3.5-3.4c0-1.9-1.5-3.5-3.5-3.5h-3.7    c-1.5,0-2.9,1-3.3,2.5l-2.2,7c-0.6,1.8,0.5,3.7,2.3,4.3C293,603.3,293.3,603.4,293.7,603.4z"/>
		<path class="st0" d="M292.6,641.7c0.7,0.9,1.7,1.4,2.8,1.4c0.7,0,1.4-0.2,2.1-0.7c1.5-1.2,1.8-3.3,0.7-4.9l-6.7-8.8    c-1.2-1.5-3.4-1.8-4.8-0.6c-1.5,1.1-1.9,3.3-0.7,4.8L292.6,641.7z"/>
		<path class="st0" d="M306,659.4c0.7,0.9,1.7,1.4,2.8,1.4c0.7,0,1.5-0.2,2.1-0.7c1.5-1.1,1.8-3.3,0.7-4.9l-6.7-8.8    c-1.1-1.5-3.3-1.8-4.8-0.7c-1.5,1.2-1.8,3.3-0.7,4.8L306,659.4z"/>
		<path class="st0" d="M391.2,620.6l-2.6-10.7c-0.4-1.9-2.4-3.1-4.2-2.5c-1.9,0.4-3,2.3-2.5,4.2l2.6,10.7c0.4,1.6,1.8,2.6,3.4,2.6    c0.3,0,0.5,0,0.8-0.1C390.5,624.3,391.7,622.5,391.2,620.6z"/>
		<path class="st0" d="M638.4,610.7c-1.9,0-3.4,1.6-3.4,3.5c0,1,0.4,1.8,1,2.4c5.5-0.4,11-0.9,16.5-1.4c0.2-0.4,0.4-0.7,0.4-1.1    c0-1.9-1.5-3.5-3.4-3.5H638.4z"/>
		<path class="st0" d="M379.2,716.1c0,1.9,1.5,3.5,3.4,3.5h11.1c0,0,0.1,0,0.1,0c-2-2.3-3.9-4.6-5.9-6.9h-5.3    C380.7,712.7,379.2,714.2,379.2,716.1z"/>
		<path class="st0" d="M366,589.4h-11.1c-1.9,0-3.5,1.6-3.5,3.5c0,1.9,1.5,3.4,3.5,3.4H366c1.9,0,3.4-1.5,3.4-3.4    C369.4,591,367.9,589.4,366,589.4z"/>
		<path class="st0" d="M368.9,646.8l-6.6,8.9c-1.1,1.6-0.8,3.7,0.7,4.8c0.6,0.5,1.3,0.7,2.1,0.7c1.1,0,2.1-0.5,2.8-1.4l6.6-8.9    c1.1-1.6,0.8-3.7-0.7-4.9C372.2,644.9,370,645.3,368.9,646.8z"/>
		<path class="st0" d="M361.4,668.8c1.1-1.5,0.8-3.7-0.7-4.8c-1.5-1.2-3.8-0.8-4.9,0.7l-6.6,8.9c-1.1,1.5-0.8,3.7,0.8,4.8    c0.6,0.5,1.3,0.7,2,0.7c1.1,0,2.1-0.5,2.8-1.4L361.4,668.8z"/>
		<path class="st0" d="M287.1,609.5l-3.3,10.6c-0.5,1.8,0.5,3.8,2.3,4.4c0.4,0.1,0.7,0.2,1,0.2c1.5,0,2.8-1,3.3-2.5l3.3-10.6    c0.5-1.8-0.5-3.8-2.3-4.3C289.6,606.7,287.7,607.7,287.1,609.5z"/>
		<path class="st0" d="M380.9,589.4h-3.8c-1.9,0-3.5,1.6-3.5,3.5c0,1.9,1.6,3.4,3.5,3.4h1.1l1.1,4.4c0.4,1.6,1.8,2.6,3.3,2.6    c0.3,0,0.6,0,0.8-0.1c1.9-0.4,3-2.3,2.6-4.1l-1.7-7.1C383.9,590.5,382.5,589.4,380.9,589.4z"/>
		<path class="st0" d="M382,629l-6.6,8.9c-1.1,1.5-0.8,3.7,0.7,4.9c0.6,0.5,1.4,0.7,2.1,0.7c1.1,0,2.1-0.5,2.8-1.4l6.6-8.9    c1.1-1.6,0.8-3.7-0.8-4.9C385.3,627.1,383.2,627.4,382,629z"/>
		<polygon class="st0" points="1509.1,244.5 1517.3,244.5 1517.3,266.2 1521.6,266.2 1521.6,244.5 1529.8,244.5 1529.8,241     1509.1,241   "/>
		<polygon class="st0" points="1555,241 1547.5,261.1 1540.8,241 1534.1,241 1534.1,266.2 1538.3,266.2 1538.3,244.9 1545.5,266.2     1549.3,266.2 1556.8,245.9 1556.8,266.2 1561.2,266.2 1561.2,241   "/>
	</g>
	<g>
		<path class="st0" d="M149.4,912.4l-17.6-22.2l5.6-17.5h38.2L180,890l-17.3,22.4v1.1h71.2h1h80.5v-1.1l-25-24.9v-28.3h26.2    c20.4,0,50.8-5.1,50.8-45.8c0-20.9-9.2-31.7-13.9-36.1c-11.1-10.5-25.7-11.6-37.5-11.6h-82.2v1.1l22.3,24.9v95.9l-21.7,24.3    l-19.9-24.3l-24.5-95.9l20.5-24.9v-1.1h-92.8v1.1l20.1,24.7l-31,96.1l-19.7,24.9v1.1h62.1V912.4z M290.4,789h17.3    c11.5,0,25.4,1.9,25.4,21.6c0,21.5-17.5,22.6-24,22.6h-18.7V789z M158.8,801.7l12,46.2h-26.9L158.8,801.7z"/>
		<path class="st0" d="M452.1,859.2c20.4,0,50.9-5.1,50.9-45.8c0-20.9-9.3-31.7-13.9-36.1c-11.1-10.5-25.7-11.6-37.5-11.6h-82.1v1.1    l22.2,24.9v95.9l-22.2,24.9v1.1H451v-1.1l-25-24.9v-28.3H452.1z M425.9,789h17.3c11.5,0,25.3,1.9,25.3,21.6    c0,21.5-17.5,22.6-24,22.6h-18.7V789z"/>
		<polygon class="st0" points="505,912.4 505,913.5 629.9,913.5 629.9,848.4 626.2,848.4 603.4,890 561.5,890 561.5,791.6     583.7,766.7 583.7,765.6 505,765.6 505,766.7 527.3,791.6 527.3,887.4   "/>
		<polygon class="st0" points="768.1,848.4 764.3,848.4 742.9,890 692.6,890 692.6,852 714.3,852 734.2,875.9 734.9,875.9     734.9,803 734.2,803 714.3,827 692.6,827 692.6,789 740.9,789 761.4,827.7 765.2,827.7 765.2,765.6 636.1,765.6 636.1,766.7     658.4,791.6 658.4,887.4 636.1,912.4 636.1,913.5 768.1,913.5   "/>
	</g>
	<g>
		<path class="st0" d="M959.7,846.1c1.5,5.3,2.2,10.8,2.2,15.8c0,14.6-3.8,31.3-23.5,31.3c-28.1,0-27.6-39.5-27.6-52.2    c0-25.4,3.4-37.2,3.7-38.7c3.6-12,10.1-19,20.4-19c12.3,0,28.6,14,37.5,39.1l0.7,1.9h6.5v-64.9H977l-13.9,14.4    c-5-4.9-15.9-14.2-31.7-14.2c-14.4,0-29.5,6.3-41.3,20.9c-13.5,16.5-19.3,39.1-19.3,61.9c0,20.5,4.8,39.8,17.8,54.3    c5.6,6.3,20.7,20.5,47.6,20.5c21.2,0,33.1-8.5,34.4-9.5c9.1-6.5,16.6-18.4,16.6-31.7C987.2,857.3,973.7,846.1,959.7,846.1z"/>
		<polygon class="st0" points="995.6,766.8 1017.9,791.8 1017.9,887.7 995.6,912.6 995.6,913.7 1074.4,913.7 1074.4,912.6     1052.1,887.7 1052.1,791.8 1074.4,766.8 1074.4,765.8 995.6,765.8   "/>
		<path class="st0" d="M1148.6,765.8h-72.1v1.1l22.3,24.9v96l-22.3,24.9v1.1h82.7c23.3,0,38.4-11,46.2-21.6    c11.6-15.6,12.7-35.7,12.7-48c0-18.4-3.6-40.2-19.2-57.7C1182.3,767.9,1162.2,765.8,1148.6,765.8z M1172.9,877.6    c-7.9,11.6-22.8,12.7-30.5,12.7h-9.4v-101h11.5c9.8,0,20.2,1.7,28.4,15.4c6.5,10.8,7.2,24.1,7.2,36.8    C1180.1,853.1,1179.1,868.5,1172.9,877.6z"/>
		<polygon class="st0" points="1327.7,890.2 1277.3,890.2 1277.3,852.2 1299.1,852.2 1318.9,876.1 1319.6,876.1 1319.6,803.2     1318.9,803.2 1299.1,827.3 1277.3,827.3 1277.3,789.2 1325.6,789.2 1346.2,827.9 1349.9,827.9 1349.9,765.8 1220.8,765.8     1220.8,766.8 1243.1,791.8 1243.1,887.7 1220.8,912.6 1220.8,913.7 1352.9,913.7 1352.9,848.6 1349.1,848.6   "/>
		<path class="st0" d="M1489.7,874.4c-1.4-8-5.1-24.1-24.6-30.9c23.3-0.4,34.9-21.5,34.9-37c0-6.5-1.6-21.3-15.6-31.7    c-11.3-8.3-24.3-9.1-31.3-9.1h-88.4v1.1l22.3,24.9v96l-22.3,24.9v1.1h77.1v-1.1l-20.6-22.4v-34.7h9.8c9.4,0,20,3.4,22.8,20.1    l6.4,38h51l0.2-1.1l-18.5-20.3L1489.7,874.4z M1438.6,829.4h-17.5v-40.2h20.6c7,0,22.1,2.3,22.1,19.9    C1463.8,826,1450.8,829.4,1438.6,829.4z"/>
	</g>
</g>
</svg>