<svg width="16" height="16" viewBox="0 0 46 46" fill="none" xmlns="http://www.w3.org/2000/svg">
    <path d="M44.31 7.19007C45.7956 5.70439 45.793 3.29301 44.3145 1.81446L44.1856 1.68556C42.7024 0.202375 40.3004 0.199595 38.81 1.69007L23.7026 16.7974C23.3146 17.1854 22.6789 17.1789 22.2974 16.7974L7.19007 1.69007C5.70439 0.204393 3.29301 0.20701 1.81446 1.68556L1.68556 1.81446C0.202375 3.29765 0.199595 5.69959 1.69007 7.19007L16.7974 22.2974C17.1854 22.6854 17.1789 23.3211 16.7974 23.7026L1.69007 38.81C0.204393 40.2956 0.20701 42.707 1.68556 44.1856L1.81446 44.3145C3.29765 45.7976 5.69959 45.8004 7.19007 44.31L22.2974 29.2026C22.6854 28.8146 23.3211 28.8211 23.7026 29.2026L38.81 44.31C40.2956 45.7956 42.707 45.793 44.1856 44.3145L44.3145 44.1856C45.7976 42.7024 45.8004 40.3004 44.31 38.81L29.2026 23.7026C28.8146 23.3146 28.8211 22.6789 29.2026 22.2974L44.31 7.19007Z" fill="white"/>
</svg>