<svg viewBox="0 0 278 512" fill="none" xmlns="http://www.w3.org/2000/svg">
	<path d="M266.979 0.109197L200.584 0.00266838C125.993 0.00266838 77.7884 49.4588 77.7884 126.005V184.101H11.032C5.26341 184.101 0.592102 188.777 0.592102 194.546V278.72C0.592102 284.489 5.26873 289.16 11.032 289.16H77.7884V501.557C77.7884 507.326 82.4597 511.997 88.2282 511.997H175.326C181.095 511.997 185.766 507.321 185.766 501.557V289.16H263.82C269.589 289.16 274.26 284.489 274.26 278.72L274.292 194.546C274.292 191.776 273.189 189.124 271.235 187.164C269.28 185.203 266.616 184.101 263.847 184.101H185.766V134.852C185.766 111.182 191.407 99.1653 222.242 99.1653L266.968 99.1493C272.731 99.1493 277.403 94.4726 277.403 88.7094V10.549C277.403 4.79115 272.737 0.11985 266.979 0.109197Z" fill="white"/>
</svg>
