<svg viewBox="0 0 18 17" fill="none" xmlns="http://www.w3.org/2000/svg">
    <path d="M12.4702 12.4525L12.7902 12.603L13.0387 12.3514C13.5077 11.8765 14.1714 11.578 14.914 11.578C16.3589 11.578 17.495 12.6978 17.495 14.038C17.495 15.3773 16.3588 16.498 14.914 16.498C13.4692 16.498 12.333 15.3773 12.333 14.038C12.333 13.92 12.3447 13.8001 12.3648 13.6733L12.4237 13.3024L12.0838 13.1425L5.52481 10.0575L5.20508 9.90716L4.95657 10.1583C4.48721 10.6327 3.82327 10.932 3.081 10.932C1.63609 10.932 0.5 9.81218 0.5 8.472C0.5 7.13182 1.63609 6.012 3.081 6.012C3.82625 6.012 4.49279 6.31449 4.96334 6.79342L5.21093 7.04541L5.53115 6.89623L12.0801 3.84523L12.4206 3.68662L12.3631 3.31545C12.344 3.19183 12.333 3.07518 12.333 2.96C12.333 1.61982 13.4691 0.5 14.914 0.5C16.3589 0.5 17.495 1.61982 17.495 2.96C17.495 4.30018 16.3589 5.42 14.914 5.42C14.1687 5.42 13.502 5.11747 13.0314 4.63927L12.7838 4.38773L12.4639 4.53677L5.91485 7.58777L5.57401 7.74656L5.63198 8.11808C5.65145 8.24285 5.663 8.35875 5.663 8.472C5.663 8.58807 5.6507 8.70728 5.63017 8.83667L5.57134 9.2076L5.91119 9.36745L12.4702 12.4525Z" fill="white" stroke="white"/>
</svg>
